<svg width="434" height="329" viewBox="0 0 434 329" fill="none" xmlns="http://www.w3.org/2000/svg">
<path d="M201.278 316.885C201.762 320.85 203.541 324.478 205.439 327.972C205.502 328.091 205.566 328.208 205.632 328.327H225.358C225.757 328.219 226.151 328.1 226.543 327.972C228.771 327.263 230.874 326.18 232.771 324.767C240.028 319.298 242.821 308.964 241.559 299.704C240.775 293.951 238.361 288.077 233.661 284.978C231.108 283.352 228.063 282.794 225.134 283.416C225.059 283.43 224.984 283.448 224.908 283.464C223.689 283.71 222.533 284.224 221.518 284.971C220.502 285.718 219.649 286.681 219.014 287.798C216.773 291.962 218.108 297.12 219.209 301.755C220.308 306.389 220.904 311.936 217.715 315.354C218.183 313.925 218.278 312.391 217.99 310.91C217.703 309.43 217.044 308.056 216.081 306.93C215.118 305.804 213.886 304.967 212.511 304.504C211.136 304.042 209.668 303.97 208.258 304.297C208.028 304.349 207.8 304.407 207.576 304.479C207.034 304.644 206.512 304.873 206.019 305.16C202.259 307.357 200.736 312.416 201.278 316.885Z" fill="#F2F2F2"/>
<path d="M212.974 327.972C212.428 328.105 211.879 328.223 211.328 328.327H214.31C214.701 328.217 215.089 328.1 215.475 327.972C216.322 327.695 217.156 327.377 217.977 327.019C221.307 325.604 224.264 323.375 226.599 320.516C227.721 319.117 228.638 317.551 229.318 315.869C230.056 313.969 230.525 311.965 230.71 309.923C231.049 305.7 230.778 301.449 229.909 297.31C229.091 293.044 227.77 288.901 225.977 284.975C225.762 284.504 225.539 284.037 225.309 283.572C225.293 283.534 225.269 283.5 225.238 283.473C225.208 283.446 225.172 283.426 225.134 283.416C225.055 283.4 224.974 283.417 224.908 283.464C224.828 283.512 224.77 283.589 224.743 283.681C224.717 283.773 224.726 283.872 224.767 283.958C226.616 287.728 228.017 291.721 228.94 295.847C229.89 299.894 230.308 304.058 230.181 308.224C230.113 312.097 228.957 315.865 226.857 319.057C224.815 321.931 222.128 324.237 219.034 325.77C217.099 326.739 215.066 327.477 212.974 327.972Z" fill="white"/>
<path d="M206.428 328.327H207.308C207.406 328.21 207.501 328.091 207.595 327.972C209.597 325.427 210.954 322.394 211.54 319.154C212.251 315.112 211.698 310.937 209.963 307.249C209.479 306.214 208.908 305.227 208.258 304.297C208.027 304.349 207.8 304.407 207.576 304.478C210.059 307.89 211.333 312.098 211.179 316.383C211.025 320.669 209.453 324.765 206.732 327.972C206.634 328.091 206.532 328.21 206.428 328.327Z" fill="white"/>
<path d="M429.94 110.488L341.475 144.047L303.167 33.5594L391.631 0L429.94 110.488Z" fill="#F1F1F1"/>
<path d="M429.94 110.488L341.475 144.047L303.167 33.5594L391.631 0L429.94 110.488Z" fill="#F1F1F1"/>
<path d="M391.993 53.6075L341.414 72.7948L342.282 75.2962L392.86 56.1089L391.993 53.6075Z" fill="white"/>
<path d="M394.248 60.111L343.669 79.2983L344.536 81.7997L395.115 62.6124L394.248 60.111Z" fill="white"/>
<path d="M396.503 66.6146L345.924 85.8019L346.791 88.3033L397.37 69.116L396.503 66.6146Z" fill="white"/>
<path d="M337.863 77.7083C338.78 77.7083 339.523 76.9309 339.523 75.9718C339.523 75.0128 338.78 74.2354 337.863 74.2354C336.946 74.2354 336.203 75.0128 336.203 75.9718C336.203 76.9309 336.946 77.7083 337.863 77.7083Z" fill="white"/>
<path d="M382.277 25.5837L331.698 44.771L332.565 47.2724L383.144 28.0851L382.277 25.5837Z" fill="white"/>
<path d="M384.532 32.0874L333.953 51.2747L334.82 53.776L385.399 34.5887L384.532 32.0874Z" fill="white"/>
<path d="M386.786 38.5909L336.208 57.7782L337.075 60.2796L387.654 41.0923L386.786 38.5909Z" fill="white"/>
<path d="M328.052 49.4126C328.969 49.4126 329.713 48.6351 329.713 47.6761C329.713 46.717 328.969 45.9396 328.052 45.9396C327.136 45.9396 326.392 46.717 326.392 47.6761C326.392 48.6351 327.136 49.4126 328.052 49.4126Z" fill="white"/>
<path d="M401.804 81.9033L351.225 101.091L352.092 103.592L402.671 84.4046L401.804 81.9033Z" fill="white"/>
<path d="M404.059 88.4068L353.48 107.594L354.347 110.095L404.926 90.9082L404.059 88.4068Z" fill="white"/>
<path d="M406.314 94.9105L355.735 114.098L356.602 116.599L407.181 97.4118L406.314 94.9105Z" fill="white"/>
<path d="M347.579 105.732C348.496 105.732 349.24 104.955 349.24 103.996C349.24 103.036 348.496 102.259 347.579 102.259C346.663 102.259 345.919 103.036 345.919 103.996C345.919 104.955 346.663 105.732 347.579 105.732Z" fill="white"/>
<path d="M434 144.038H339.897V26.5078H434V144.038Z" fill="white"/>
<path d="M434 144.038H339.897V26.5078H434V144.038ZM341.557 142.301H432.34V28.2443H341.557V142.301Z" fill="#E5E5E5"/>
<path d="M402.068 69.9477H378.479C378.147 69.9473 377.828 69.8089 377.593 69.5629C377.357 69.3168 377.225 68.9832 377.225 68.6353V43.9615C377.225 43.6135 377.357 43.2799 377.593 43.0339C377.828 42.7878 378.147 42.6494 378.479 42.649H402.068C402.401 42.6494 402.72 42.7878 402.955 43.0339C403.19 43.2799 403.322 43.6135 403.323 43.9615V68.6353C403.322 68.9832 403.19 69.3168 402.955 69.5629C402.72 69.8089 402.401 69.9473 402.068 69.9477ZM378.479 43.174C378.28 43.1742 378.088 43.2573 377.947 43.4049C377.806 43.5525 377.727 43.7527 377.727 43.9615V68.6353C377.727 68.844 377.806 69.0442 377.947 69.1918C378.088 69.3395 378.28 69.4225 378.479 69.4227H402.068C402.268 69.4225 402.459 69.3395 402.6 69.1918C402.741 69.0442 402.821 68.844 402.821 68.6353V43.9615C402.821 43.7527 402.741 43.5526 402.6 43.4049C402.459 43.2573 402.268 43.1742 402.068 43.174H378.479Z" fill="#E5E5E5"/>
<path d="M395.293 72.9662H371.704C371.405 72.9659 371.118 72.8413 370.906 72.6199C370.694 72.3984 370.575 72.0982 370.575 71.785V47.1113C370.575 46.7981 370.694 46.4979 370.906 46.2764C371.118 46.055 371.405 45.9304 371.704 45.9301H395.293C395.592 45.9304 395.879 46.055 396.091 46.2764C396.302 46.4979 396.421 46.7981 396.422 47.1113V71.785C396.421 72.0982 396.302 72.3984 396.091 72.6199C395.879 72.8413 395.592 72.9659 395.293 72.9662Z" fill="#FFC93C"/>
<path d="M419.862 83.4222H354.036V86.083H419.862V83.4222Z" fill="#F1F1F1"/>
<path d="M419.862 90.3597H354.036V93.0205H419.862V90.3597Z" fill="#F1F1F1"/>
<path d="M419.862 97.2974H354.035V99.9582H419.862V97.2974Z" fill="#F1F1F1"/>
<path d="M419.862 109.507H354.035V112.168H419.862V109.507Z" fill="#F1F1F1"/>
<path d="M419.862 116.445H354.035V119.106H419.862V116.445Z" fill="#F1F1F1"/>
<path d="M419.862 123.382H354.035V126.043H419.862V123.382Z" fill="#F1F1F1"/>
<path d="M126.774 321.422H133.697L136.99 293.49L126.772 293.49L126.774 321.422Z" fill="#FFB8B8"/>
<path d="M125.007 319.057L138.642 319.057H138.642C140.947 319.057 143.156 320.015 144.786 321.719C146.415 323.423 147.331 325.735 147.331 328.145V328.441L125.008 328.441L125.007 319.057Z" fill="#2F2E41"/>
<path d="M78.2871 316.462L85.0074 318.201L94.6202 291.915L84.7019 289.348L78.2871 316.462Z" fill="#FFB8B8"/>
<path d="M77.1159 313.723L90.3508 317.149L90.3513 317.149C92.5882 317.728 94.5134 319.213 95.7036 321.277C96.8938 323.341 97.2515 325.815 96.6981 328.155L96.6302 328.442L74.9608 322.832L77.1159 313.723Z" fill="#2F2E41"/>
<path d="M103.898 202.913L97.8102 239.16C97.8102 239.16 95.4688 243.568 96.4054 245.528C97.342 247.487 97.8102 247.487 96.4054 248.466C95.0005 249.446 93.1274 248.466 93.5957 250.916C93.8764 252.368 94.0331 253.843 94.064 255.324L80.9521 302.347C80.9521 302.347 72.5231 306.266 78.6107 308.715C84.6984 311.164 90.786 313.123 92.1908 310.674C93.5957 308.225 92.1908 305.286 92.1908 305.286L113.732 251.405C113.732 251.405 117.01 246.507 117.01 243.568C117.01 240.629 127.78 219.567 127.78 219.567C127.78 219.567 128.248 240.629 128.717 242.099C129.185 243.568 127.78 246.507 127.78 248.466C127.78 250.426 126.844 250.426 127.78 251.405C128.717 252.385 128.717 263.651 128.717 263.651C128.717 263.651 123.097 307.245 126.375 307.735C129.653 308.225 139.019 307.245 139.019 305.286C139.06 304.775 138.946 304.264 138.694 303.824C138.442 303.385 138.064 303.039 137.614 302.837L143.702 265.61C143.446 264.124 143.609 262.593 144.17 261.202C145.107 259.243 145.107 259.243 145.107 258.263C145.107 257.283 144.638 256.793 145.107 256.304C145.412 255.881 145.577 255.364 145.575 254.834C145.575 254.834 144.638 251.895 145.107 251.405C145.575 250.916 155.877 214.179 152.599 209.77C149.321 205.362 103.898 202.913 103.898 202.913Z" fill="#2F2E41"/>
<path d="M124.841 124.693C131.565 124.693 137.016 118.992 137.016 111.958C137.016 104.924 131.565 99.2225 124.841 99.2225C118.117 99.2225 112.666 104.924 112.666 111.958C112.666 118.992 118.117 124.693 124.841 124.693Z" fill="#FFB8B8"/>
<path d="M116.239 121.181C116.865 120.741 116.889 119.737 116.679 118.921C116.378 118.139 116.19 117.315 116.121 116.475C116.21 114.202 119.203 113.291 119.374 111.029C119.479 109.639 118.447 108.101 119.042 106.897C119.418 106.136 120.293 105.883 121.089 105.737C124.18 105.178 127.342 105.223 130.417 105.868L130.866 104.635L133.145 106.208C133.269 105.443 134.281 105.366 134.943 105.733C135.605 106.1 136.177 106.734 136.899 106.857C138.05 107.052 138.959 105.748 138.899 104.494C138.727 103.225 138.183 102.044 137.34 101.113C135.424 98.6304 133.099 96.5253 130.475 94.8971L131.108 93.7052L129.753 94.274L129.605 92.8486L128.285 93.6242L128.267 92.3403C126.854 94.0369 124.394 93.9785 122.235 94.1315C118.625 94.3063 115.157 95.655 112.314 97.9895C110.895 99.2013 109.733 100.709 108.902 102.416C108.071 104.124 107.589 105.994 107.486 107.907C107.364 110.903 108.351 114.55 110.466 116.771C112.389 118.791 115.237 117.565 116.239 121.181Z" fill="#2F2E41"/>
<path d="M154.716 235.521C154.098 234.914 153.614 234.173 153.3 233.35C152.985 232.527 152.846 231.642 152.894 230.757C152.942 229.872 153.174 229.008 153.575 228.227C153.977 227.446 154.537 226.767 155.216 226.237L151.969 212.802L159.292 208.746L163.624 227.786C164.399 229.039 164.709 230.546 164.493 232.022C164.278 233.497 163.552 234.839 162.454 235.792C161.356 236.745 159.962 237.244 158.536 237.194C157.11 237.144 155.751 236.549 154.716 235.521V235.521Z" fill="#FFB8B8"/>
<path d="M135.142 218.134C120.342 218.135 106.719 211.129 106.535 211.032L106.382 210.953L105.14 179.776C104.78 178.674 97.6886 156.935 96.4875 150.025C95.2705 143.024 112.908 136.88 115.049 136.162L115.535 130.53L135.3 128.302L137.805 135.508L144.895 138.289C145.699 138.605 146.364 139.218 146.765 140.012C147.166 140.807 147.274 141.727 147.069 142.599L143.128 159.363L150.88 214.824L150.681 214.918C145.778 217.131 140.481 218.227 135.142 218.134Z" fill="#FFC93C"/>
<path d="M152.811 221.614L145.952 192.078L138.518 156.437L142.292 138.674H145.518C145.577 138.674 151.44 138.765 152.702 146.687C153.925 154.36 157.612 178.78 157.649 179.025L163.88 220.74L152.811 221.614Z" fill="#FFC93C"/>
<path d="M245.706 329H0.64321C0.47262 329 0.309007 328.929 0.188382 328.803C0.0677563 328.677 0 328.506 0 328.327C0 328.149 0.0677563 327.978 0.188382 327.851C0.309007 327.725 0.47262 327.654 0.64321 327.654H245.706C245.877 327.654 246.041 327.725 246.161 327.851C246.282 327.978 246.35 328.149 246.35 328.327C246.35 328.506 246.282 328.677 246.161 328.803C246.041 328.929 245.877 329 245.706 329Z" fill="#CBCBCB"/>
<path d="M140.634 261.307L77.5938 218.369L128.086 137.259L191.127 180.197L140.634 261.307Z" fill="white"/>
<path d="M140.634 261.307L77.5938 218.369L128.086 137.259L191.127 180.197L140.634 261.307ZM79.4855 217.951L140.235 259.328L189.235 180.615L128.486 139.238L79.4855 217.951Z" fill="#E5E5E5"/>
<path d="M122.368 183.017L121.225 184.853L156.454 208.848L157.597 207.012L122.368 183.017Z" fill="#FFC93C"/>
<path d="M119.396 187.792L118.253 189.629L153.482 213.623L154.625 211.787L119.396 187.792Z" fill="#FFC93C"/>
<path d="M116.424 192.566L115.281 194.402L150.509 218.396L151.652 216.56L116.424 192.566Z" fill="#FFC93C"/>
<path d="M118.611 183.578C119.366 183.578 119.978 182.938 119.978 182.148C119.978 181.358 119.366 180.718 118.611 180.718C117.856 180.718 117.243 181.358 117.243 182.148C117.243 182.938 117.856 183.578 118.611 183.578Z" fill="#FFC93C"/>
<path d="M135.175 162.445L134.032 164.281L169.26 188.275L170.403 186.439L135.175 162.445Z" fill="#E5E5E5"/>
<path d="M132.203 167.219L131.06 169.055L166.288 193.05L167.431 191.213L132.203 167.219Z" fill="#E5E5E5"/>
<path d="M129.231 171.994L128.088 173.83L163.316 197.825L164.459 195.989L129.231 171.994Z" fill="#E5E5E5"/>
<path d="M131.542 162.806C132.297 162.806 132.909 162.166 132.909 161.376C132.909 160.586 132.297 159.946 131.542 159.946C130.787 159.946 130.174 160.586 130.174 161.376C130.174 162.166 130.787 162.806 131.542 162.806Z" fill="#E5E5E5"/>
<path d="M109.437 203.789L108.294 205.626L143.523 229.62L144.666 227.784L109.437 203.789Z" fill="#E5E5E5"/>
<path d="M106.465 208.564L105.322 210.4L140.55 234.394L141.693 232.558L106.465 208.564Z" fill="#E5E5E5"/>
<path d="M103.493 213.338L102.35 215.174L137.578 239.169L138.721 237.332L103.493 213.338Z" fill="#E5E5E5"/>
<path d="M105.804 204.151C106.559 204.151 107.171 203.511 107.171 202.721C107.171 201.931 106.559 201.291 105.804 201.291C105.049 201.291 104.437 201.931 104.437 202.721C104.437 203.511 105.049 204.151 105.804 204.151Z" fill="#E5E5E5"/>
<path d="M123.462 216.622C123.422 215.737 123.197 214.871 122.802 214.087C122.408 213.302 121.853 212.617 121.178 212.081C120.504 211.545 119.725 211.17 118.896 210.982C118.068 210.795 117.21 210.8 116.384 210.997L108.717 199.695L101.015 202.893L112.056 218.694C112.464 220.125 113.36 221.349 114.573 222.134C115.786 222.92 117.233 223.213 118.639 222.958C120.045 222.702 121.312 221.916 122.201 220.749C123.09 219.581 123.539 218.113 123.462 216.622Z" fill="#FFB8B8"/>
<path d="M108.52 215.785L85.3217 184.305L94.0138 155.731C94.6508 148.546 98.9486 146.54 99.1315 146.458L99.4104 146.333L106.974 167.432L101.421 182.923L115.052 206.903L108.52 215.785Z" fill="#FFC93C"/>
<path d="M256.902 209.241H253.043V210.587H256.902V209.241Z" fill="#CBCBCB"/>
<path d="M365.562 210.587H357.8V209.241H365.562V210.587ZM350.039 210.587H342.277V209.241H350.039L350.039 210.587ZM334.516 210.587H326.755V209.241H334.516V210.587ZM318.993 210.587H311.232V209.241H318.993V210.587ZM303.47 210.587H295.709V209.241H303.47V210.587ZM287.948 210.587H280.186V209.241H287.948V210.587ZM272.425 210.587H264.663V209.241H272.425V210.587Z" fill="#CBCBCB"/>
<path d="M377.826 210.587H373.323V209.241H376.539V205.877H377.826V210.587Z" fill="#CBCBCB"/>
<path d="M377.825 197.71H376.539V201.793H377.825V197.71Z" fill="#CBCBCB"/>
<path d="M377.825 189.589H376.539V193.626H377.825V189.589Z" fill="#CBCBCB"/>
</svg>
