<svg width="600" height="225" viewBox="0 0 600 225" fill="none" xmlns="http://www.w3.org/2000/svg">
<g clip-path="url(#clip0)">
<path d="M17.2171 198.528C19.3248 199.268 21.5878 199.454 23.7881 199.066C25.9884 198.679 28.0518 197.731 29.7795 196.315C34.1794 192.621 35.5592 186.539 36.6814 180.905L40.0014 164.242L33.0506 169.028C28.0517 172.47 22.9405 176.022 19.4796 181.007C16.0187 185.993 14.5089 192.798 17.2888 198.193" fill="#E6E6E6"/>
<path d="M18.2903 219.862C17.4154 213.488 16.5153 207.032 17.1305 200.59C17.6756 194.869 19.4211 189.281 22.9748 184.698C24.8611 182.271 27.1564 180.191 29.7574 178.552C30.4355 178.124 31.0598 179.199 30.3846 179.625C25.8839 182.469 22.4028 186.669 20.4431 191.619C18.2787 197.124 17.9312 203.125 18.304 208.973C18.5293 212.509 19.0082 216.022 19.4891 219.531C19.5271 219.69 19.5033 219.857 19.4228 219.999C19.3422 220.141 19.2107 220.247 19.055 220.295C18.8961 220.338 18.7267 220.316 18.5837 220.235C18.4406 220.154 18.3353 220.019 18.2907 219.861L18.2903 219.862Z" fill="#F2F2F2"/>
<path d="M24.5875 209.635C25.4913 211.009 26.7339 212.127 28.1954 212.882C29.6569 213.636 31.2881 214.002 32.9318 213.943C37.1569 213.742 40.6779 210.794 43.8472 207.995L53.2233 199.717L47.0181 199.42C42.5556 199.206 37.978 199.006 33.7276 200.383C29.4771 201.761 25.5573 205.072 24.7802 209.471" fill="#E6E6E6"/>
<path d="M15.8175 223.526C20.0293 216.074 24.9144 207.791 33.6439 205.144C36.0709 204.41 38.6157 204.147 41.1414 204.369C41.9376 204.438 41.7387 205.665 40.9442 205.597C36.7105 205.245 32.4849 206.363 28.9788 208.762C25.6828 211.154 22.8886 214.169 20.7547 217.637C19.3926 219.711 18.1728 221.873 16.9528 224.032C16.563 224.722 15.4231 224.224 15.8175 223.526Z" fill="#F2F2F2"/>
<path d="M402.486 188.786C405.388 189.806 408.505 190.062 411.535 189.528C414.565 188.994 417.406 187.689 419.785 185.739C425.844 180.653 427.744 172.277 429.289 164.519L433.861 141.572L424.29 148.163C417.406 152.903 410.367 157.794 405.602 164.659C400.836 171.524 398.757 180.897 402.585 188.325" fill="#E6E6E6"/>
<path d="M403.964 218.165C402.759 209.388 401.52 200.497 402.367 191.626C403.117 183.748 405.521 176.054 410.415 169.743C413.012 166.4 416.173 163.535 419.755 161.279C420.689 160.689 421.548 162.169 420.619 162.756C414.421 166.673 409.627 172.456 406.928 179.273C403.948 186.854 403.469 195.117 403.983 203.17C404.293 208.04 404.953 212.877 405.615 217.709C405.667 217.928 405.634 218.158 405.523 218.353C405.412 218.549 405.231 218.695 405.017 218.762C404.798 218.821 404.565 218.791 404.368 218.679C404.171 218.567 404.026 218.382 403.965 218.164L403.964 218.165Z" fill="#F2F2F2"/>
<path d="M412.635 204.081C413.88 205.974 415.591 207.514 417.604 208.553C419.616 209.592 421.862 210.095 424.126 210.014C429.944 209.738 434.793 205.679 439.157 201.824L452.069 190.424L443.524 190.015C437.379 189.721 431.075 189.445 425.222 191.342C419.369 193.239 413.971 197.798 412.901 203.856" fill="#E6E6E6"/>
<path d="M400.558 223.211C406.359 212.948 413.085 201.543 425.107 197.897C428.449 196.887 431.953 196.525 435.431 196.831C436.528 196.926 436.254 198.615 435.16 198.521C429.329 198.037 423.511 199.576 418.683 202.88C414.036 206.043 410.419 210.439 407.357 215.101C405.482 217.958 403.802 220.935 402.122 223.908C401.585 224.858 400.015 224.172 400.558 223.211Z" fill="#F2F2F2"/>
<path d="M348.125 34.3695C347.514 34.1032 347.021 33.6212 346.742 33.0153C346.463 32.4095 346.416 31.7221 346.61 31.084C346.642 30.9861 346.662 30.8849 346.669 30.7824V30.7824C346.687 30.4901 346.61 30.1998 346.45 29.9545C346.29 29.7092 346.055 29.522 345.781 29.4207C345.506 29.3193 345.206 29.3091 344.925 29.3917C344.644 29.4742 344.397 29.6451 344.22 29.879V29.879C344.16 29.962 344.109 30.0518 344.069 30.1466C343.803 30.7583 343.321 31.2506 342.715 31.53C342.109 31.8093 341.422 31.8561 340.784 31.6614C340.686 31.6299 340.585 31.6101 340.482 31.6023V31.6023C340.19 31.5845 339.9 31.6614 339.654 31.8215C339.409 31.9816 339.222 32.2164 339.121 32.4912C339.019 32.766 339.009 33.0661 339.092 33.3472C339.174 33.6282 339.345 33.8751 339.579 34.0515C339.662 34.1121 339.752 34.1627 339.847 34.2023C340.458 34.4687 340.951 34.9507 341.23 35.5566C341.509 36.1624 341.556 36.8498 341.361 37.4879C341.33 37.5857 341.31 37.6869 341.302 37.7894V37.7894C341.284 38.0818 341.361 38.3721 341.521 38.6174C341.681 38.8626 341.916 39.0498 342.191 39.1512C342.466 39.2525 342.766 39.2627 343.047 39.1802C343.328 39.0976 343.575 38.9267 343.751 38.6929V38.6929C343.812 38.6099 343.863 38.52 343.902 38.4252C344.169 37.8135 344.651 37.3212 345.256 37.0419C345.862 36.7626 346.55 36.7158 347.188 36.9104C347.286 36.9419 347.387 36.9617 347.489 36.9695V36.9695C347.782 36.9873 348.072 36.9105 348.317 36.7504C348.563 36.5903 348.75 36.3555 348.851 36.0807C348.952 35.8059 348.963 35.5057 348.88 35.2247C348.798 34.9437 348.627 34.6967 348.393 34.5204V34.5204C348.31 34.4597 348.22 34.4091 348.125 34.3695Z" fill="#CBCBCB"/>
<path d="M399.913 154.961C399.301 154.695 398.809 154.213 398.53 153.607C398.25 153.001 398.204 152.314 398.398 151.676C398.43 151.578 398.45 151.477 398.457 151.374V151.374C398.475 151.082 398.398 150.792 398.238 150.546C398.078 150.301 397.843 150.114 397.568 150.012C397.294 149.911 396.994 149.901 396.712 149.983C396.431 150.066 396.184 150.237 396.008 150.471V150.471C395.948 150.554 395.897 150.644 395.857 150.738C395.591 151.35 395.109 151.842 394.503 152.122C393.897 152.401 393.21 152.448 392.572 152.253C392.474 152.222 392.373 152.202 392.27 152.194V152.194C391.978 152.176 391.688 152.253 391.442 152.413C391.197 152.573 391.01 152.808 390.908 153.083C390.807 153.358 390.797 153.658 390.879 153.939C390.962 154.22 391.133 154.467 391.367 154.643C391.45 154.704 391.54 154.755 391.634 154.794C392.246 155.06 392.738 155.543 393.018 156.148C393.297 156.754 393.344 157.442 393.149 158.08C393.118 158.178 393.098 158.279 393.09 158.381C393.072 158.674 393.149 158.964 393.309 159.209C393.469 159.454 393.704 159.642 393.979 159.743C394.254 159.844 394.554 159.855 394.835 159.772C395.116 159.689 395.363 159.519 395.539 159.285C395.6 159.202 395.651 159.112 395.69 159.017C395.957 158.405 396.438 157.913 397.044 157.634C397.65 157.354 398.338 157.308 398.976 157.502C399.074 157.534 399.175 157.554 399.277 157.561V157.561C399.57 157.579 399.86 157.502 400.105 157.342C400.35 157.182 400.538 156.947 400.639 156.672C400.74 156.398 400.751 156.098 400.668 155.816C400.585 155.535 400.415 155.288 400.181 155.112V155.112C400.098 155.052 400.008 155.001 399.913 154.961V154.961Z" fill="#F1F1F1"/>
<path d="M128.396 84.6776C127.785 84.4113 127.292 83.9293 127.013 83.3234C126.734 82.7176 126.687 82.0302 126.882 81.3921C126.913 81.2942 126.933 81.193 126.941 81.0906V81.0906C126.959 80.7982 126.882 80.5079 126.722 80.2626C126.561 80.0173 126.327 79.8301 126.052 79.7288C125.777 79.6274 125.477 79.6172 125.196 79.6998C124.915 79.7823 124.668 79.9532 124.492 80.1871V80.1871C124.431 80.2701 124.38 80.3599 124.341 80.4547C124.074 81.0664 123.592 81.5587 122.986 81.8381C122.381 82.1174 121.693 82.1642 121.055 81.9695C120.957 81.938 120.856 81.9182 120.754 81.9104V81.9104C120.461 81.8926 120.171 81.9695 119.926 82.1296C119.68 82.2897 119.493 82.5245 119.392 82.7993C119.29 83.0741 119.28 83.3742 119.363 83.6553C119.445 83.9363 119.616 84.1833 119.85 84.3596C119.933 84.4202 120.023 84.4709 120.118 84.5104C120.729 84.7768 121.222 85.2588 121.501 85.8647C121.78 86.4705 121.827 87.1579 121.633 87.796C121.601 87.8938 121.581 87.995 121.573 88.0975V88.0975C121.556 88.3899 121.633 88.6802 121.793 88.9255C121.953 89.1707 122.188 89.3579 122.462 89.4593C122.737 89.5607 123.037 89.5708 123.318 89.4883C123.599 89.4057 123.846 89.2348 124.023 89.001V89.001C124.083 88.918 124.134 88.8281 124.174 88.7333C124.44 88.1217 124.922 87.6293 125.528 87.35C126.134 87.0707 126.821 87.0239 127.459 87.2185C127.557 87.25 127.658 87.2698 127.761 87.2776V87.2776C128.053 87.2954 128.343 87.2186 128.589 87.0585C128.834 86.8984 129.021 86.6636 129.122 86.3888C129.224 86.114 129.234 85.8138 129.151 85.5328C129.069 85.2518 128.898 85.0048 128.664 84.8285V84.8285C128.581 84.7678 128.491 84.7172 128.396 84.6776V84.6776Z" fill="#F1F1F1"/>
<path d="M241.667 41.4302C244.119 41.4302 246.106 39.4428 246.106 36.9912C246.106 34.5396 244.119 32.5522 241.667 32.5522C239.216 32.5522 237.228 34.5396 237.228 36.9912C237.228 39.4428 239.216 41.4302 241.667 41.4302Z" fill="#F1F1F1"/>
<path d="M478.412 29.5933C480.864 29.5933 482.851 27.6059 482.851 25.1543C482.851 22.7027 480.864 20.7153 478.412 20.7153C475.961 20.7153 473.973 22.7027 473.973 25.1543C473.973 27.6059 475.961 29.5933 478.412 29.5933Z" fill="#FFC93C"/>
<path d="M133.653 8.87793C136.104 8.87793 138.092 6.89054 138.092 4.43896C138.092 1.98739 136.104 0 133.653 0C131.201 0 129.214 1.98739 129.214 4.43896C129.214 6.89054 131.201 8.87793 133.653 8.87793Z" fill="#CBCBCB"/>
<path d="M116.582 210.622C134.179 210.622 148.444 196.357 148.444 178.76C148.444 161.163 134.179 146.897 116.582 146.897C98.9849 146.897 84.7196 161.163 84.7196 178.76C84.7196 196.357 98.9849 210.622 116.582 210.622Z" fill="#2F2E41"/>
<path d="M111.742 203.766H102.062V221.108H111.742V203.766Z" fill="#2F2E41"/>
<path d="M131.102 203.766H121.422V221.108H131.102V203.766Z" fill="#2F2E41"/>
<path d="M110.129 224.335C114.584 224.335 118.195 222.981 118.195 221.31C118.195 219.639 114.584 218.285 110.129 218.285C105.674 218.285 102.062 219.639 102.062 221.31C102.062 222.981 105.674 224.335 110.129 224.335Z" fill="#2F2E41"/>
<path d="M129.488 223.932C133.943 223.932 137.555 222.577 137.555 220.907C137.555 219.236 133.943 217.882 129.488 217.882C125.033 217.882 121.422 219.236 121.422 220.907C121.422 222.577 125.033 223.932 129.488 223.932Z" fill="#2F2E41"/>
<path d="M150.917 164.836C157.817 157.931 161.654 150.576 159.486 148.41C157.318 146.244 149.967 150.086 143.066 156.992C136.166 163.897 132.329 171.252 134.497 173.418C136.665 175.584 144.017 171.742 150.917 164.836Z" fill="#2F2E41"/>
<path d="M90.8998 175.638C93.0677 173.471 89.2313 166.117 82.3309 159.211C75.4306 152.306 68.0793 148.464 65.9114 150.63C63.7435 152.796 67.5799 160.15 74.4803 167.056C81.3806 173.962 88.7319 177.804 90.8998 175.638Z" fill="#2F2E41"/>
<path d="M115.241 185.134C121.256 185.134 126.131 180.258 126.131 174.244C126.131 168.23 121.256 163.354 115.241 163.354C109.227 163.354 104.352 168.23 104.352 174.244C104.352 180.258 109.227 185.134 115.241 185.134Z" fill="white"/>
<path d="M115.241 177.874C117.246 177.874 118.871 176.249 118.871 174.244C118.871 172.239 117.246 170.614 115.241 170.614C113.237 170.614 111.611 172.239 111.611 174.244C111.611 176.249 113.237 177.874 115.241 177.874Z" fill="#3F3D56"/>
<path d="M123.886 194.384C124.222 196.232 123.811 198.138 122.742 199.683C121.673 201.227 120.035 202.284 118.187 202.62C116.339 202.957 114.433 202.545 112.889 201.476C111.344 200.408 110.287 198.769 109.951 196.921V196.921L109.949 196.907C109.252 193.059 112.228 191.697 116.076 191C119.925 190.303 123.189 190.536 123.886 194.384Z" fill="white"/>
<path d="M147.825 212.2C147.108 212.201 146.42 212.486 145.913 212.993C145.406 213.5 145.121 214.188 145.12 214.905V220.555C145.121 221.272 145.406 221.96 145.913 222.467C146.42 222.974 147.108 223.259 147.825 223.26H191.349C192.066 223.259 192.754 222.974 193.261 222.467C193.768 221.96 194.053 221.272 194.054 220.555V214.905C194.053 214.188 193.768 213.5 193.261 212.993C192.754 212.486 192.066 212.201 191.349 212.2H147.825Z" fill="#E5E5E5"/>
<path d="M172.855 208.437C172.585 208.281 172.265 208.239 171.965 208.32C171.664 208.4 171.408 208.597 171.252 208.866L169.635 211.668L168.05 208.535C167.909 208.257 167.664 208.047 167.369 207.95C167.073 207.853 166.751 207.878 166.474 208.018C166.196 208.158 165.986 208.403 165.889 208.699C165.792 208.995 165.816 209.317 165.957 209.594L167.19 212.032H166.738V223.428H172.771V212.032H172.133L173.284 210.039C173.44 209.77 173.482 209.45 173.401 209.149C173.321 208.848 173.124 208.592 172.855 208.437V208.437Z" fill="#FFC93C"/>
<path d="M115.761 157.861C110.1 157.855 104.472 156.995 99.0673 155.31C98.6918 155.189 98.3642 154.952 98.1314 154.634C97.8986 154.315 97.7724 153.931 97.771 153.537V140.567C97.7716 140.077 97.9666 139.607 98.3134 139.26C98.6601 138.913 99.1302 138.718 99.6206 138.718H132.173C132.663 138.718 133.133 138.913 133.48 139.26C133.827 139.607 134.022 140.077 134.023 140.567V153.529C134.023 153.927 133.895 154.314 133.658 154.634C133.421 154.954 133.087 155.189 132.707 155.304C127.214 156.982 121.505 157.844 115.761 157.861V157.861Z" fill="#FFC93C"/>
<path opacity="0.2" d="M133.653 140.567V142.735L116.037 148.912C115.708 149.026 115.349 149.021 115.024 148.898L98.1409 142.557V140.567C98.142 140.175 98.2982 139.799 98.5755 139.522C98.8527 139.245 99.2284 139.089 99.6205 139.087H132.173C132.565 139.089 132.941 139.245 133.218 139.522C133.495 139.799 133.651 140.175 133.653 140.567Z" fill="black"/>
<path d="M115.544 146.406C115.322 146.406 115.102 146.366 114.894 146.288L89.6654 136.815C89.3087 136.681 89.0021 136.44 88.7874 136.125C88.5728 135.81 88.4606 135.437 88.4663 135.056C88.4719 134.675 88.5951 134.305 88.8189 133.997C89.0428 133.688 89.3564 133.457 89.7169 133.333L113.455 125.212C113.838 125.083 114.253 125.081 114.638 125.207L141.131 134.039C141.497 134.161 141.816 134.394 142.043 134.706C142.269 135.018 142.393 135.393 142.396 135.779C142.399 136.165 142.281 136.542 142.059 136.858C141.837 137.173 141.522 137.411 141.158 137.539L116.156 146.302C115.959 146.371 115.753 146.406 115.544 146.406V146.406Z" fill="#FFC93C"/>
<path d="M92.5924 145.746H91.8525V135.019H114.417V135.758H92.5924V145.746Z" fill="#3F3D56"/>
<path d="M92.2222 147.966C93.0394 147.966 93.7019 147.303 93.7019 146.486C93.7019 145.669 93.0394 145.006 92.2222 145.006C91.405 145.006 90.7426 145.669 90.7426 146.486C90.7426 147.303 91.405 147.966 92.2222 147.966Z" fill="#3F3D56"/>
<path d="M300.799 210.622C318.396 210.622 332.661 196.357 332.661 178.76C332.661 161.163 318.396 146.897 300.799 146.897C283.202 146.897 268.937 161.163 268.937 178.76C268.937 196.357 283.202 210.622 300.799 210.622Z" fill="#2F2E41"/>
<path d="M295.959 203.766H286.279V221.108H295.959V203.766Z" fill="#2F2E41"/>
<path d="M315.319 203.766H305.639V221.108H315.319V203.766Z" fill="#2F2E41"/>
<path d="M294.346 224.335C298.801 224.335 302.412 222.981 302.412 221.31C302.412 219.639 298.801 218.285 294.346 218.285C289.891 218.285 286.279 219.639 286.279 221.31C286.279 222.981 289.891 224.335 294.346 224.335Z" fill="#2F2E41"/>
<path d="M313.705 223.932C318.16 223.932 321.772 222.577 321.772 220.907C321.772 219.236 318.16 217.882 313.705 217.882C309.25 217.882 305.639 219.236 305.639 220.907C305.639 222.577 309.25 223.932 313.705 223.932Z" fill="#2F2E41"/>
<path d="M335.134 164.836C342.034 157.931 345.871 150.576 343.703 148.41C341.535 146.244 334.184 150.086 327.283 156.992C320.383 163.897 316.546 171.252 318.714 173.418C320.882 175.584 328.234 171.742 335.134 164.836Z" fill="#2F2E41"/>
<path d="M272.36 194.412C277.927 186.393 280.401 178.476 277.883 176.728C275.366 174.98 268.811 180.063 263.243 188.082C257.675 196.101 255.202 204.019 257.72 205.767C260.237 207.514 266.792 202.431 272.36 194.412Z" fill="#2F2E41"/>
<path d="M299.458 185.134C305.473 185.134 310.348 180.258 310.348 174.244C310.348 168.23 305.473 163.354 299.458 163.354C293.444 163.354 288.569 168.23 288.569 174.244C288.569 180.258 293.444 185.134 299.458 185.134Z" fill="white"/>
<path d="M303.157 174.175C305.162 174.175 306.787 172.55 306.787 170.545C306.787 168.54 305.162 166.915 303.157 166.915C301.153 166.915 299.528 168.54 299.528 170.545C299.528 172.55 301.153 174.175 303.157 174.175Z" fill="#3F3D56"/>
<path d="M312.514 194.384C313.583 198.232 309.691 201.92 303.823 202.62C297.955 203.321 292.332 200.769 291.263 196.921L291.26 196.907C290.197 193.059 294.735 191.697 300.604 191C306.474 190.303 311.452 190.536 312.514 194.384Z" fill="white"/>
<path d="M289.65 160.007C284.396 162.114 278.853 163.416 273.21 163.869C272.816 163.897 272.424 163.799 272.089 163.59C271.754 163.382 271.494 163.072 271.346 162.707L266.507 150.674C266.325 150.219 266.33 149.71 266.523 149.259C266.715 148.808 267.079 148.451 267.533 148.268L297.736 136.124C298.191 135.941 298.7 135.947 299.151 136.139C299.602 136.331 299.958 136.695 300.142 137.15L304.977 149.176C305.126 149.545 305.152 149.952 305.051 150.337C304.951 150.722 304.729 151.064 304.418 151.314C299.949 154.92 294.973 157.849 289.65 160.007V160.007Z" fill="#FFC93C"/>
<path opacity="0.2" d="M299.798 137.288L300.607 139.299L286.568 151.602C286.305 151.83 285.97 151.959 285.622 151.967L267.593 152.382L266.85 150.536C266.705 150.172 266.71 149.765 266.864 149.404C267.018 149.043 267.308 148.758 267.671 148.611L297.874 136.467C298.238 136.322 298.645 136.326 299.005 136.48C299.366 136.634 299.651 136.924 299.798 137.288V137.288Z" fill="black"/>
<path d="M285.175 149.46C284.97 149.543 284.75 149.589 284.529 149.594L257.587 150.217C257.206 150.226 256.832 150.116 256.515 149.904C256.198 149.692 255.955 149.388 255.818 149.032C255.681 148.677 255.657 148.287 255.75 147.918C255.843 147.548 256.047 147.216 256.336 146.967L275.33 130.577C275.638 130.313 276.022 130.157 276.426 130.131L304.301 128.441C304.687 128.418 305.069 128.515 305.396 128.72C305.723 128.925 305.977 129.227 306.124 129.584C306.271 129.941 306.302 130.334 306.214 130.71C306.126 131.085 305.922 131.424 305.632 131.678L285.704 149.136C285.548 149.273 285.369 149.383 285.175 149.46V149.46Z" fill="#FFC93C"/>
<path d="M263.635 157.411L262.948 157.687L258.946 147.734L279.882 139.315L280.158 140.002L259.908 148.145L263.635 157.411Z" fill="#3F3D56"/>
<path d="M263.567 159.715C264.384 159.715 265.047 159.053 265.047 158.236C265.047 157.418 264.384 156.756 263.567 156.756C262.75 156.756 262.088 157.418 262.088 158.236C262.088 159.053 262.75 159.715 263.567 159.715Z" fill="#3F3D56"/>
<path d="M422.099 103.479C417.296 100.482 412.973 96.7772 409.275 92.4903C409.021 92.189 408.868 91.8148 408.839 91.4213C408.809 91.0278 408.905 90.6351 409.112 90.2994L415.967 79.2896C416.227 78.8737 416.641 78.5777 417.119 78.4666C417.596 78.3555 418.099 78.4384 418.515 78.6971L446.149 95.9025C446.565 96.1621 446.861 96.5762 446.972 97.0538C447.083 97.5314 447 98.0336 446.742 98.4502L439.891 109.454C439.68 109.791 439.367 110.053 438.997 110.199C438.627 110.345 438.22 110.368 437.835 110.265C432.286 108.786 426.984 106.5 422.099 103.479V103.479Z" fill="#FFC93C"/>
<path opacity="0.2" d="M446.428 98.2545L445.282 100.095L427.063 96.0284C426.723 95.9508 426.422 95.7568 426.21 95.4801L415.229 81.1745L416.281 79.485C416.49 79.1528 416.821 78.9165 417.203 78.8276C417.585 78.7388 417.986 78.8048 418.32 79.011L445.954 96.2164C446.286 96.4246 446.522 96.7558 446.611 97.1377C446.7 97.5196 446.634 97.9211 446.428 98.2545V98.2545Z" fill="black"/>
<path d="M427.969 93.6399C427.781 93.5227 427.615 93.3726 427.48 93.1966L411.07 71.8202C410.838 71.5179 410.705 71.1514 410.689 70.7707C410.673 70.3899 410.775 70.0136 410.981 69.6932C411.188 69.3727 411.488 69.1238 411.841 68.9803C412.194 68.8369 412.582 68.8059 412.954 68.8918L437.397 74.5444C437.791 74.6369 438.145 74.8549 438.404 75.1656L456.227 96.6654C456.473 96.9624 456.62 97.3289 456.648 97.7137C456.675 98.0985 456.582 98.4822 456.38 98.8112C456.179 99.1403 455.88 99.3981 455.525 99.5486C455.17 99.6992 454.776 99.735 454.4 99.6509L428.543 93.8751C428.34 93.8296 428.146 93.7501 427.969 93.6399Z" fill="#FFC93C"/>
<path d="M408.834 80.9491L408.206 80.5577L413.876 71.4512L433.031 83.3779L432.64 84.0053L414.112 72.4699L408.834 80.9491Z" fill="#3F3D56"/>
<path d="M408.129 82.8607C408.946 82.8607 409.608 82.1982 409.608 81.381C409.608 80.5638 408.946 79.9014 408.129 79.9014C407.312 79.9014 406.649 80.5638 406.649 81.381C406.649 82.1982 407.312 82.8607 408.129 82.8607Z" fill="#3F3D56"/>
<path d="M499.182 174.37C516.779 174.37 531.044 160.105 531.044 142.508C531.044 124.911 516.779 110.646 499.182 110.646C481.585 110.646 467.32 124.911 467.32 142.508C467.32 160.105 481.585 174.37 499.182 174.37Z" fill="#2F2E41"/>
<path d="M521.271 159.029L513.011 164.077L522.055 178.875L530.314 173.827L521.271 159.029Z" fill="#2F2E41"/>
<path d="M504.752 169.125L496.493 174.172L505.537 188.97L513.796 183.923L504.752 169.125Z" fill="#2F2E41"/>
<path d="M525.114 180.787C528.916 178.464 531.291 175.425 530.42 173.999C529.549 172.574 525.761 173.301 521.959 175.625C518.158 177.948 515.783 180.987 516.654 182.412C517.525 183.838 521.313 183.11 525.114 180.787Z" fill="#2F2E41"/>
<path d="M508.385 190.538C512.187 188.215 514.562 185.176 513.691 183.751C512.82 182.325 509.032 183.053 505.23 185.376C501.429 187.699 499.054 190.738 499.925 192.164C500.796 193.589 504.584 192.861 508.385 190.538Z" fill="#2F2E41"/>
<path d="M481.267 137.166C483.434 135 479.598 127.646 472.698 120.74C465.797 113.835 458.446 109.993 456.278 112.159C454.11 114.325 457.947 121.679 464.847 128.585C471.747 135.491 479.099 139.333 481.267 137.166Z" fill="#2F2E41"/>
<path d="M542.261 169.515C544.779 167.767 542.306 159.849 536.738 151.831C531.17 143.812 524.615 138.728 522.098 140.476C519.58 142.224 522.054 150.142 527.621 158.16C533.189 166.179 539.744 171.263 542.261 169.515Z" fill="#2F2E41"/>
<path d="M489.425 144.443C495.439 144.443 500.315 139.568 500.315 133.554C500.315 127.54 495.439 122.664 489.425 122.664C483.411 122.664 478.535 127.54 478.535 133.554C478.535 139.568 483.411 144.443 489.425 144.443Z" fill="white"/>
<path d="M485.726 133.484C487.731 133.484 489.356 131.859 489.356 129.855C489.356 127.85 487.731 126.225 485.726 126.225C483.721 126.225 482.096 127.85 482.096 129.855C482.096 131.859 483.721 133.484 485.726 133.484Z" fill="#3F3D56"/>
<path d="M475.402 151.719C473.337 155.102 476.089 159.679 481.547 161.942C487.006 164.205 493.106 163.297 495.171 159.913L495.178 159.901C497.238 156.516 493.237 153.983 487.776 151.724C482.315 149.464 477.462 148.334 475.402 151.719Z" fill="white"/>
<path d="M488.491 102.501C491.336 91.0433 503.895 84.3006 516.541 87.4409C529.188 90.5812 537.134 102.415 534.289 113.873C531.444 125.331 522.005 125.368 509.358 122.227C496.711 119.087 485.646 113.959 488.491 102.501Z" fill="#E6E6E6"/>
<path d="M599.26 224.907H0.739827C0.543613 224.907 0.355434 224.829 0.21669 224.691C0.0779453 224.552 0 224.364 0 224.168C0 223.971 0.0779453 223.783 0.21669 223.644C0.355434 223.506 0.543613 223.428 0.739827 223.428H599.26C599.456 223.428 599.645 223.506 599.783 223.644C599.922 223.783 600 223.971 600 224.168C600 224.364 599.922 224.552 599.783 224.691C599.645 224.829 599.456 224.907 599.26 224.907Z" fill="#CBCBCB"/>
</g>
<defs>
<clipPath id="clip0">
<rect width="600" height="224.908" fill="white"/>
</clipPath>
</defs>
</svg>
