<svg width="729" height="109" viewBox="0 0 729 109" fill="none" xmlns="http://www.w3.org/2000/svg">
<path d="M0.165071 92.1142C0.917271 98.0075 3.68314 103.399 6.63376 108.593C6.73129 108.77 6.8317 108.944 6.93454 109.121H37.6019C38.2221 108.96 38.8344 108.783 39.4441 108.593C42.9079 107.539 46.1779 105.93 49.1272 103.83C60.4097 95.7008 64.7513 80.3408 62.7903 66.5774C61.5709 58.0264 57.8181 49.2961 50.5102 44.6907C46.5419 42.2738 41.8073 41.4443 37.2536 42.3682C37.1374 42.3893 37.0213 42.4157 36.9026 42.4395C35.0071 42.8059 33.2107 43.5694 31.6314 44.6797C30.0521 45.7901 28.7257 47.2221 27.7394 48.8818C24.2557 55.0707 26.33 62.7375 28.0428 69.6258C29.7504 76.5141 30.6768 84.7588 25.7204 89.8393C26.4468 87.7146 26.5943 85.4349 26.1477 83.2343C25.7012 81.0337 24.6767 78.9918 23.1795 77.3183C21.6824 75.6449 19.7666 74.4003 17.6291 73.7126C15.4916 73.0248 13.2096 72.9187 11.0175 73.4051C10.6586 73.4816 10.3049 73.5687 9.95651 73.6743C9.11457 73.9209 8.30283 74.2608 7.53641 74.6877C1.69054 77.9523 -0.676929 85.4714 0.165071 92.1142Z" fill="#F2F2F2"/>
<path d="M500.609 58.6436C499.558 58.1861 498.713 57.3584 498.233 56.3179C497.753 55.2775 497.673 54.097 498.007 53.0011C498.061 52.8331 498.095 52.6593 498.109 52.4833C498.139 51.9812 498.007 51.4827 497.732 51.0614C497.457 50.6402 497.054 50.3188 496.582 50.1447C496.11 49.9706 495.595 49.9531 495.112 50.0949C494.63 50.2367 494.205 50.5301 493.903 50.9317C493.798 51.0742 493.712 51.2285 493.644 51.3914C493.186 52.4418 492.358 53.2874 491.318 53.767C490.277 54.2467 489.097 54.3271 488.001 53.9928C487.833 53.9387 487.659 53.9047 487.483 53.8913C486.981 53.8608 486.483 53.9927 486.061 54.2677C485.64 54.5426 485.319 54.9459 485.145 55.4178C484.971 55.8898 484.953 56.4052 485.095 56.8878C485.237 57.3704 485.53 57.7946 485.932 58.0974C486.074 58.2015 486.229 58.2885 486.391 58.3564C487.442 58.8139 488.287 59.6417 488.767 60.6821C489.247 61.7226 489.327 62.903 488.993 63.9989C488.939 64.1669 488.905 64.3407 488.891 64.5167C488.861 65.0188 488.993 65.5173 489.268 65.9386C489.543 66.3598 489.946 66.6812 490.418 66.8553C490.89 67.0294 491.405 67.0469 491.888 66.9051C492.37 66.7633 492.795 66.4699 493.097 66.0682C493.201 65.9257 493.288 65.7714 493.356 65.6086C493.814 64.5581 494.642 63.7126 495.682 63.233C496.723 62.7533 497.903 62.6729 498.999 63.0071C499.167 63.0612 499.341 63.0953 499.517 63.1087C500.019 63.1392 500.517 63.0073 500.939 62.7324C501.36 62.4574 501.681 62.0541 501.855 61.5822C502.029 61.1102 502.047 60.5948 501.905 60.1122C501.763 59.6296 501.47 59.2054 501.068 58.9026C500.926 58.7985 500.771 58.7116 500.609 58.6436Z" fill="#CBCBCB"/>
<path d="M319.5 70C323.642 70 327 66.6421 327 62.5C327 58.3579 323.642 55 319.5 55C315.358 55 312 58.3579 312 62.5C312 66.6421 315.358 70 319.5 70Z" fill="#F1F1F1"/>
<path d="M721.5 50C725.642 50 729 46.6421 729 42.5C729 38.3579 725.642 35 721.5 35C717.358 35 714 38.3579 714 42.5C714 46.6421 717.358 50 721.5 50Z" fill="#FFC93C"/>
<path d="M136.5 15C140.642 15 144 11.6421 144 7.5C144 3.35786 140.642 0 136.5 0C132.358 0 129 3.35786 129 7.5C129 11.6421 132.358 15 136.5 15Z" fill="#CBCBCB"/>
</svg>
