<svg width="615" height="468" viewBox="0 0 615 468" fill="none" xmlns="http://www.w3.org/2000/svg">
<circle cx="381" cy="234" r="234" fill="white"/>
<path d="M220.714 414.228C220.457 414.228 220.209 414.13 220.021 413.954C219.832 413.778 219.718 413.538 219.7 413.281C219.034 404.234 214.976 395.772 208.339 389.588C201.702 383.405 192.974 379.956 183.903 379.931C182.817 379.931 181.677 379.987 180.513 380.096C180.318 380.114 180.123 380.076 179.949 379.986C179.775 379.896 179.632 379.757 179.534 379.588C175.367 372.294 169.145 366.389 161.643 362.61C154.141 358.83 145.693 357.344 137.351 358.336C129.01 359.328 121.146 362.755 114.74 368.188C108.333 373.622 103.669 380.822 101.329 388.889C101.268 389.105 101.136 389.295 100.954 389.428C100.773 389.561 100.553 389.63 100.328 389.624L100.057 389.616C99.9164 389.611 99.7757 389.606 99.6338 389.606C92.7532 389.627 86.0868 392.001 80.7408 396.332C75.3947 400.664 71.6904 406.693 70.2424 413.42C70.1942 413.648 70.0689 413.853 69.8875 414C69.706 414.148 69.4795 414.228 69.2459 414.228H1.02155C0.887545 414.228 0.754781 414.202 0.630859 414.151C0.506938 414.1 0.39431 414.025 0.299408 413.931C0.204506 413.836 0.129197 413.724 0.0778198 413.6C0.0264427 413.476 0 413.344 0 413.21C0 413.076 0.0264427 412.943 0.0778198 412.819C0.129197 412.695 0.204506 412.583 0.299408 412.488C0.39431 412.394 0.506938 412.319 0.630859 412.268C0.754781 412.217 0.887545 412.191 1.02155 412.191H68.4309C70.1279 405.195 74.1195 398.968 79.7687 394.505C85.418 390.043 92.3993 387.601 99.5986 387.569C102.162 379.279 107.077 371.911 113.748 366.361C120.418 360.811 128.557 357.318 137.176 356.306C145.794 355.294 154.521 356.806 162.296 360.659C170.071 364.513 176.56 370.541 180.974 378.012C181.975 377.934 182.958 377.895 183.903 377.895C193.489 377.921 202.712 381.566 209.726 388.101C216.74 394.635 221.028 403.578 221.731 413.138C221.741 413.272 221.724 413.406 221.681 413.532C221.639 413.659 221.572 413.777 221.484 413.878C221.397 413.979 221.29 414.061 221.17 414.121C221.051 414.181 220.92 414.216 220.787 414.225C220.763 414.227 220.738 414.228 220.714 414.228Z" fill="#CBCBCB"/>
<path d="M208.598 427.285H41.5875C41.4535 427.285 41.3207 427.259 41.1968 427.208C41.0729 427.157 40.9602 427.082 40.8653 426.988C40.7704 426.893 40.6951 426.781 40.6437 426.657C40.5924 426.533 40.5659 426.401 40.5659 426.267C40.5659 426.133 40.5924 426 40.6437 425.876C40.6951 425.752 40.7704 425.64 40.8653 425.545C40.9602 425.451 41.0729 425.376 41.1968 425.325C41.3207 425.274 41.4535 425.248 41.5875 425.248H208.598C208.868 425.248 209.127 425.356 209.318 425.547C209.509 425.738 209.616 425.997 209.616 426.267C209.616 426.537 209.509 426.796 209.318 426.987C209.127 427.178 208.868 427.285 208.598 427.285Z" fill="#CBCBCB"/>
<path d="M82.3217 442.051H26.3121C26.1781 442.052 26.0453 442.025 25.9214 441.974C25.7975 441.924 25.6848 441.849 25.5899 441.754C25.495 441.659 25.4197 441.547 25.3683 441.423C25.317 441.299 25.2905 441.167 25.2905 441.033C25.2905 440.899 25.317 440.766 25.3683 440.642C25.4197 440.519 25.495 440.406 25.5899 440.312C25.6848 440.217 25.7975 440.142 25.9214 440.091C26.0453 440.04 26.1781 440.014 26.3121 440.014H82.3217C82.4557 440.014 82.5885 440.04 82.7124 440.091C82.8363 440.142 82.949 440.217 83.0439 440.312C83.1388 440.406 83.2141 440.519 83.2654 440.642C83.3168 440.766 83.3433 440.899 83.3433 441.033C83.3433 441.167 83.3168 441.299 83.2654 441.423C83.2141 441.547 83.1388 441.659 83.0439 441.754C82.949 441.849 82.8363 441.924 82.7124 441.974C82.5885 442.025 82.4557 442.052 82.3217 442.051Z" fill="#CBCBCB"/>
<path d="M436.914 98.2344C436.554 98.2341 436.208 98.0976 435.946 97.8524C435.683 97.6073 435.523 97.2717 435.498 96.9133C434.569 84.2917 428.908 72.4864 419.649 63.8596C410.389 55.2329 398.213 50.421 385.557 50.387C384.043 50.387 382.452 50.464 380.828 50.6159C380.556 50.6414 380.283 50.5882 380.041 50.4626C379.799 50.337 379.598 50.1443 379.463 49.9076C373.649 39.7321 364.968 31.494 354.502 26.2213C344.036 20.9486 332.249 18.8749 320.612 20.259C308.975 21.643 298.004 26.4235 289.066 34.0038C280.129 41.5842 273.622 51.6287 270.358 62.8839C270.272 63.1855 270.088 63.4499 269.835 63.6354C269.582 63.821 269.274 63.9172 268.961 63.9089L268.583 63.8974C268.387 63.8908 268.19 63.8839 267.992 63.8839C258.393 63.914 249.093 67.2252 241.634 73.2682C234.176 79.3112 229.008 87.7226 226.988 97.1069C226.921 97.4258 226.746 97.7119 226.493 97.9172C226.24 98.1225 225.924 98.2345 225.598 98.2345H130.417C130.041 98.2335 129.68 98.0834 129.415 97.8171C129.149 97.5507 129 97.1899 129 96.8138C129 96.4377 129.149 96.0769 129.415 95.8105C129.68 95.5442 130.041 95.3941 130.417 95.3931H224.461C226.828 85.6322 232.397 76.9455 240.278 70.7194C248.16 64.4932 257.899 61.0864 267.943 61.0425C271.519 49.4764 278.376 39.1977 287.683 31.455C296.989 23.7122 308.344 18.8388 320.367 17.4267C332.391 16.0146 344.566 18.1246 355.413 23.5004C366.26 28.8762 375.312 37.2864 381.47 47.7093C382.868 47.6004 384.239 47.5456 385.557 47.5456C398.931 47.5818 411.798 52.6671 421.584 61.7838C431.369 70.9005 437.351 83.3761 438.332 96.7143C438.345 96.9004 438.322 97.0873 438.263 97.2642C438.203 97.4412 438.11 97.6048 437.988 97.7457C437.865 97.8865 437.716 98.0019 437.549 98.0852C437.382 98.1684 437.201 98.218 437.014 98.2311C436.981 98.2334 436.947 98.2344 436.914 98.2344Z" fill="#CBCBCB"/>
<path d="M420.009 116.451H187.011C186.634 116.451 186.272 116.301 186.006 116.034C185.74 115.768 185.59 115.407 185.59 115.03C185.59 114.653 185.74 114.292 186.006 114.025C186.272 113.759 186.634 113.609 187.011 113.609H420.009C420.386 113.609 420.747 113.759 421.014 114.025C421.28 114.292 421.43 114.653 421.43 115.03C421.43 115.407 421.28 115.768 421.014 116.034C420.747 116.301 420.386 116.451 420.009 116.451Z" fill="#CBCBCB"/>
<path d="M243.84 137.051H165.7C165.513 137.052 165.328 137.015 165.155 136.944C164.982 136.873 164.825 136.768 164.693 136.636C164.561 136.504 164.456 136.348 164.384 136.175C164.312 136.002 164.275 135.817 164.275 135.63C164.275 135.444 164.312 135.259 164.384 135.086C164.456 134.913 164.561 134.756 164.693 134.625C164.825 134.493 164.982 134.388 165.155 134.317C165.328 134.246 165.513 134.209 165.7 134.21H243.84C244.216 134.211 244.576 134.361 244.842 134.627C245.107 134.894 245.257 135.254 245.257 135.63C245.257 136.007 245.107 136.367 244.842 136.634C244.576 136.9 244.216 137.05 243.84 137.051Z" fill="#CBCBCB"/>
</svg>
