<svg width="198" height="571" viewBox="0 0 198 571" fill="none" xmlns="http://www.w3.org/2000/svg">
<path d="M445 328.5C445 442.547 389.547 571 275.5 571C195 558 0 307.047 0 193C0 78.9532 113.953 0 228 0C342.047 0 445 214.453 445 328.5Z" fill="white"/>
<path d="M159.12 175.25H153.752V192.738C153.75 194.245 153.151 195.689 152.085 196.754C151.02 197.819 149.576 198.418 148.07 198.421H14.0508V200.988C14.0523 202.672 14.7219 204.286 15.9126 205.477C17.1033 206.668 18.7178 207.337 20.4018 207.339H159.12C160.804 207.337 162.419 206.668 163.61 205.477C164.8 204.286 165.47 202.672 165.471 200.988V181.6C165.47 179.917 164.8 178.302 163.61 177.111C162.419 175.921 160.804 175.251 159.12 175.25Z" fill="#F2F2F2"/>
<path d="M148.07 167H9.35098C7.66706 167.002 6.05255 167.671 4.86184 168.862C3.67113 170.053 3.00152 171.667 3 173.351V192.738C3.00152 194.422 3.67113 196.037 4.86184 197.227C6.05255 198.418 7.66706 199.088 9.35098 199.089H148.07C149.754 199.088 151.368 198.418 152.559 197.227C153.749 196.037 154.419 194.422 154.421 192.738V173.351C154.419 171.667 153.749 170.053 152.559 168.862C151.368 167.671 149.754 167.002 148.07 167ZM153.752 192.738C153.75 194.245 153.151 195.689 152.085 196.754C151.02 197.819 149.576 198.418 148.07 198.421H9.35098C7.84455 198.418 6.40043 197.819 5.33522 196.754C4.27002 195.689 3.67066 194.245 3.66852 192.738V173.351C3.67065 171.845 4.27002 170.4 5.33522 169.335C6.40043 168.27 7.84455 167.671 9.35098 167.669H148.07C149.576 167.671 151.02 168.27 152.085 169.335C153.151 170.4 153.75 171.845 153.752 173.351V192.738Z" fill="#3F3D56"/>
<path d="M33.6959 172.349C31.5803 172.349 29.5123 172.976 27.7533 174.152C25.9943 175.327 24.6233 176.998 23.8137 178.952C23.0041 180.907 22.7923 183.057 23.205 185.132C23.6178 187.207 24.6365 189.113 26.1324 190.609C27.6283 192.105 29.5342 193.124 31.6091 193.536C33.684 193.949 35.8347 193.737 37.7892 192.928C39.7437 192.118 41.4143 190.747 42.5896 188.988C43.7649 187.229 44.3923 185.161 44.3923 183.046C44.389 180.21 43.261 177.491 41.2558 175.486C39.2505 173.48 36.5317 172.352 33.6959 172.349Z" fill="#FFC93C"/>
<path d="M131.748 192.071H55.2019C54.4927 192.071 53.8125 191.789 53.3111 191.288C52.8096 190.786 52.5278 190.106 52.5278 189.397C52.5278 188.688 52.8096 188.007 53.3111 187.506C53.8125 187.004 54.4927 186.723 55.2019 186.723H131.748C132.457 186.723 133.137 187.004 133.639 187.506C134.14 188.007 134.422 188.688 134.422 189.397C134.422 190.106 134.14 190.786 133.639 191.288C133.137 191.789 132.457 192.071 131.748 192.071Z" fill="#CCCCCC"/>
<path d="M93.3078 180.706H55.2019C54.4927 180.706 53.8125 180.424 53.3111 179.922C52.8096 179.421 52.5278 178.741 52.5278 178.032C52.5278 177.322 52.8096 176.642 53.3111 176.141C53.8125 175.639 54.4927 175.357 55.2019 175.357H93.3078C94.017 175.357 94.6972 175.639 95.1987 176.141C95.7001 176.642 95.9819 177.322 95.9819 178.032C95.9819 178.741 95.7001 179.421 95.1987 179.922C94.6972 180.424 94.017 180.706 93.3078 180.706Z" fill="#CCCCCC"/>
<path d="M32.9706 187.722C32.6942 187.723 32.4251 187.633 32.204 187.468L32.1903 187.457L29.303 185.249C29.0329 185.041 28.8562 184.736 28.8116 184.398C28.767 184.061 28.8583 183.72 29.0654 183.45C29.2724 183.18 29.5783 183.003 29.9156 182.958C30.253 182.914 30.5942 183.005 30.8643 183.212L32.7345 184.646L37.1537 178.881C37.2562 178.747 37.384 178.635 37.5298 178.551C37.6757 178.466 37.8367 178.412 38.0036 178.389C38.1706 178.367 38.3403 178.378 38.503 178.422C38.6657 178.466 38.8183 178.541 38.9519 178.643L38.9523 178.643L38.9249 178.681L38.9531 178.643C39.2227 178.851 39.3992 179.156 39.4436 179.494C39.4881 179.831 39.397 180.172 39.1903 180.442L33.9922 187.22C33.872 187.377 33.7174 187.503 33.5404 187.59C33.3634 187.677 33.1688 187.721 32.9717 187.721L32.9706 187.722Z" fill="white"/>
<circle cx="62" cy="349" r="12" fill="#07689F" fill-opacity="0.7"/>
<circle cx="135" cy="108" r="30" fill="#FFC93C" fill-opacity="0.7"/>
</svg>
