<svg width="200" height="219" viewBox="0 0 200 219" fill="none" xmlns="http://www.w3.org/2000/svg">
<circle cx="100" cy="100" r="100" fill="white"/>
<circle cx="174.5" cy="88.5" r="20.5" fill="#A2D5F2"/>
<path d="M154.24 186.91H153.532C153.545 187.053 153.552 187.2 153.552 187.351V206.738C153.549 208.245 152.95 209.689 151.885 210.754C150.82 211.819 149.376 212.418 147.869 212.421H81.3711V212.648C81.3711 212.795 81.3778 212.942 81.3877 213.089C81.4998 214.693 82.2157 216.194 83.3912 217.291C84.5667 218.388 86.1144 218.998 87.7221 218.999H154.24C155.924 218.997 157.539 218.328 158.729 217.137C159.92 215.946 160.59 214.332 160.591 212.648V193.261C160.59 191.577 159.92 189.962 158.729 188.772C157.539 187.581 155.924 186.911 154.24 186.91Z" fill="#F2F2F2"/>
<path d="M154.203 186.91C154.091 185.306 153.375 183.804 152.2 182.708C151.024 181.611 149.477 181.001 147.869 181H81.351C79.6671 181.002 78.0525 181.671 76.8618 182.862C75.6711 184.053 75.0015 185.667 75 187.351V206.738C75.0015 208.422 75.6711 210.037 76.8618 211.227C78.0525 212.418 79.6671 213.088 81.351 213.089H147.869C149.553 213.088 151.168 212.418 152.358 211.227C153.549 210.037 154.219 208.422 154.22 206.738V187.351C154.22 187.204 154.213 187.057 154.203 186.91ZM153.552 206.738C153.549 208.245 152.95 209.689 151.885 210.754C150.82 211.819 149.376 212.418 147.869 212.421H81.351C79.8446 212.418 78.4004 211.819 77.3352 210.754C76.27 209.689 75.6707 208.245 75.6685 206.738V187.351C75.6707 185.845 76.27 184.4 77.3352 183.335C78.4004 182.27 79.8445 181.671 81.351 181.669H147.869C149.299 181.671 150.676 182.211 151.725 183.182C152.774 184.153 153.419 185.484 153.531 186.91C153.545 187.053 153.552 187.201 153.552 187.351V206.738Z" fill="#3F3D56"/>
<path d="M130.989 205.402H98.2315C97.5223 205.402 96.8421 205.121 96.3406 204.619C95.8391 204.118 95.5574 203.438 95.5574 202.728C95.5574 202.019 95.8391 201.339 96.3406 200.837C96.8421 200.336 97.5223 200.054 98.2315 200.054H130.989C131.698 200.054 132.379 200.336 132.88 200.837C133.381 201.339 133.663 202.019 133.663 202.728C133.663 203.438 133.381 204.118 132.88 204.619C132.379 205.121 131.698 205.402 130.989 205.402Z" fill="#CCCCCC"/>
<path d="M120.961 194.037H98.2315C97.5223 194.037 96.8421 193.755 96.3406 193.254C95.8391 192.752 95.5574 192.072 95.5574 191.363C95.5574 190.654 95.8391 189.974 96.3406 189.472C96.8421 188.971 97.5223 188.689 98.2315 188.689H120.961C121.67 188.689 122.351 188.971 122.852 189.472C123.354 189.974 123.635 190.654 123.635 191.363C123.635 192.072 123.354 192.752 122.852 193.254C122.351 193.755 121.67 194.037 120.961 194.037Z" fill="#CCCCCC"/>
<path d="M123.51 73.5269H117.326V125.839C117.324 127.168 116.796 128.442 115.856 129.382C114.916 130.322 113.641 130.851 112.312 130.853H11.1978V135.365C11.1999 136.872 11.7993 138.316 12.8645 139.381C13.9297 140.446 15.3738 141.046 16.8802 141.048H123.51C125.016 141.046 126.46 140.446 127.525 139.381C128.591 138.316 129.19 136.872 129.192 135.365V79.2093C129.19 77.7029 128.591 76.2588 127.525 75.1936C126.46 74.1284 125.016 73.529 123.51 73.5269Z" fill="#F2F2F2"/>
<path d="M112.312 64H5.68245C4.17603 64.0021 2.73191 64.6015 1.6667 65.6667C0.601499 66.7319 0.00213105 68.176 0 69.6825V125.838C0.00213193 127.345 0.601504 128.789 1.66671 129.854C2.73191 130.919 4.17603 131.519 5.68245 131.521H112.312C113.818 131.519 115.263 130.919 116.328 129.854C117.393 128.789 117.992 127.345 117.994 125.838V69.6825C117.992 68.176 117.393 66.7319 116.328 65.6667C115.263 64.6015 113.818 64.0021 112.312 64ZM117.326 125.838C117.324 127.168 116.796 128.442 115.856 129.382C114.916 130.322 113.641 130.851 112.312 130.852H5.68245C4.35317 130.851 3.0788 130.322 2.13886 129.382C1.19891 128.442 0.670141 127.168 0.668524 125.838V69.6825C0.670141 68.3532 1.19891 67.0788 2.13886 66.1389C3.0788 65.1989 4.35317 64.6701 5.68245 64.6685H112.312C113.641 64.6701 114.916 65.1989 115.856 66.1389C116.796 67.0788 117.324 68.3532 117.326 69.6825V125.838Z" fill="#3F3D56"/>
<path d="M104.27 105.449H66.8328C66.1236 105.449 65.4434 105.167 64.9419 104.666C64.4404 104.164 64.1587 103.484 64.1587 102.775C64.1587 102.065 64.4404 101.385 64.9419 100.884C65.4434 100.382 66.1236 100.101 66.8328 100.101H104.27C104.979 100.101 105.659 100.382 106.161 100.884C106.662 101.385 106.944 102.065 106.944 102.775C106.944 103.484 106.662 104.164 106.161 104.666C105.659 105.167 104.979 105.449 104.27 105.449Z" fill="#CCCCCC"/>
<path d="M80.8718 94.084H66.8328C66.1236 94.084 65.4434 93.8023 64.9419 93.3008C64.4404 92.7993 64.1587 92.1191 64.1587 91.4099C64.1587 90.7007 64.4404 90.0206 64.9419 89.5191C65.4434 89.0176 66.1236 88.7358 66.8328 88.7358H80.8718C81.581 88.7358 82.2611 89.0176 82.7626 89.5191C83.2641 90.0206 83.5459 90.7007 83.5459 91.4099C83.5459 92.1191 83.2641 92.7993 82.7626 93.3008C82.2611 93.8023 81.581 94.084 80.8718 94.084Z" fill="#CCCCCC"/>
<path d="M49.9721 118.819H15.8774C15.1241 118.818 14.4019 118.519 13.8692 117.986C13.3366 117.454 13.037 116.731 13.0361 115.978V78.2065C13.037 77.4532 13.3366 76.731 13.8692 76.1983C14.4019 75.6657 15.1241 75.3661 15.8774 75.3652H49.9721C50.7253 75.3661 51.4475 75.6657 51.9802 76.1983C52.5128 76.731 52.8124 77.4532 52.8133 78.2065V115.978C52.8124 116.731 52.5128 117.454 51.9802 117.986C51.4475 118.519 50.7253 118.818 49.9721 118.819Z" fill="#FFC93C"/>
<path d="M33.4408 110.952C32.689 110.931 31.7534 110.905 31.033 110.378C30.8184 110.215 30.6421 110.007 30.5164 109.768C30.3907 109.53 30.3187 109.267 30.3054 108.998C30.2923 108.806 30.3237 108.614 30.3971 108.437C30.4705 108.26 30.5839 108.102 30.7284 107.976C30.9431 107.816 31.1945 107.712 31.4598 107.674C31.725 107.635 31.9956 107.664 32.2468 107.757L31.6331 103.272L32.0836 103.21L32.8052 108.483L32.429 108.311C31.9928 108.111 31.394 108.009 31.0219 108.323C30.9306 108.405 30.8594 108.508 30.8139 108.622C30.7685 108.736 30.75 108.859 30.7598 108.981C30.7709 109.182 30.8249 109.378 30.9183 109.555C31.0118 109.733 31.1424 109.888 31.3013 110.011C31.8619 110.421 32.6077 110.474 33.4536 110.497L33.4408 110.952Z" fill="#3F3D56"/>
<path d="M29.405 103.659H26.9558V104.113H29.405V103.659Z" fill="#3F3D56"/>
<path d="M37.1358 103.659H34.6865V104.113H37.1358V103.659Z" fill="#3F3D56"/>
<path d="M22.7005 97.3794C20.7282 97.1545 19.2007 95.2647 19.0329 93.3473C18.8333 91.0662 20.1618 88.8998 21.9843 87.6197C23.8902 86.2811 26.2647 85.7221 28.5622 85.599C33.0441 85.376 37.4488 86.8278 40.9197 89.6722C42.6413 91.102 44.2491 92.9234 44.8584 95.1234C45.3877 97.034 44.957 99.1984 43.4204 100.537C43.0402 100.864 42.5963 101.11 42.1165 101.258C41.6367 101.406 41.1315 101.452 40.6327 101.395C39.4404 101.271 38.3403 100.644 37.388 99.9517C35.5356 98.6049 34.0149 96.7286 31.7581 96.0248C30.1033 95.5087 27.9559 95.963 26.9447 97.4594C26.7152 97.802 26.5665 98.1921 26.5098 98.6005C26.4889 98.6876 26.5019 98.7794 26.5461 98.8573C26.5903 98.9352 26.6625 98.9934 26.748 99.0201C26.8352 99.0436 26.9282 99.0317 27.0067 98.9871C27.0852 98.9425 27.143 98.8688 27.1675 98.7819C27.433 96.8971 29.7506 96.1937 31.3769 96.6242C33.748 97.2518 35.3398 99.3677 37.2853 100.712C38.2923 101.463 39.4787 101.937 40.726 102.085C41.8075 102.17 42.8808 101.841 43.7281 101.163C45.3902 99.8508 46.0258 97.5935 45.6582 95.5612C45.2327 93.2078 43.6486 91.1907 41.9106 89.6291C38.3872 86.4968 33.813 84.807 29.0994 84.8964C26.6952 84.9517 24.1867 85.448 22.1155 86.7187C20.1065 87.9513 18.5537 90.0134 18.3507 92.4103C18.1721 94.5202 19.304 96.7269 21.2471 97.6512C21.7052 97.8682 22.1965 98.0069 22.7005 98.0615C23.1359 98.1111 23.1324 97.4286 22.7005 97.3794Z" fill="#3F3D56"/>
</svg>
