<svg width="600" height="410" viewBox="0 0 600 410" fill="none" xmlns="http://www.w3.org/2000/svg">
<path d="M353.126 363.916C358.906 374.124 354.005 408.602 354.005 408.602C354.005 408.602 321.912 395.027 316.133 384.823C314.756 382.396 313.872 379.721 313.53 376.952C313.188 374.183 313.396 371.373 314.141 368.685C314.886 365.996 316.155 363.48 317.873 361.281C319.592 359.082 321.728 357.243 324.158 355.87C326.589 354.496 329.266 353.615 332.038 353.276C334.809 352.936 337.621 353.147 340.311 353.894C343.001 354.641 345.518 355.911 347.717 357.63C349.916 359.35 351.754 361.486 353.126 363.916V363.916Z" fill="#F1F1F1"/>
<path d="M354.47 408.557L353.788 408.701C347.222 377.526 324.29 356.386 324.059 356.176L324.528 355.661C324.761 355.872 347.856 377.156 354.47 408.557Z" fill="white"/>
<path d="M405.638 375.539C397.796 389.755 353.581 409.013 353.581 409.013C353.581 409.013 346.291 361.37 354.129 347.159C355.994 343.779 358.507 340.8 361.524 338.39C364.541 335.981 368.004 334.189 371.714 333.117C375.424 332.045 379.309 331.714 383.148 332.142C386.986 332.571 390.702 333.75 394.085 335.614C397.467 337.477 400.448 339.988 402.86 343.003C405.271 346.018 407.064 349.478 408.137 353.185C409.209 356.893 409.541 360.775 409.112 364.611C408.684 368.446 407.503 372.16 405.638 375.539Z" fill="#F1F1F1"/>
<path d="M353.971 409.529L353.307 408.83C385.302 378.467 393.585 336.12 393.665 335.695L394.612 335.873C394.532 336.301 386.199 378.945 353.971 409.529Z" fill="white"/>
<path d="M567.644 15.5441H0.241943V284.585H567.644V15.5441Z" fill="#E6E6E6"/>
<path d="M551.42 38.6148H16.467V263.084H551.42V38.6148Z" fill="white"/>
<path d="M567.402 0H0V24.0869H567.402V0Z" fill="#FFC93C"/>
<path d="M17.9131 17.0279C20.3805 17.0279 22.3808 15.0291 22.3808 12.5635C22.3808 10.0979 20.3805 8.09908 17.9131 8.09908C15.4456 8.09908 13.4453 10.0979 13.4453 12.5635C13.4453 15.0291 15.4456 17.0279 17.9131 17.0279Z" fill="white"/>
<path d="M34.8711 17.0279C37.3386 17.0279 39.3388 15.0291 39.3388 12.5635C39.3388 10.0979 37.3386 8.09908 34.8711 8.09908C32.4036 8.09908 30.4033 10.0979 30.4033 12.5635C30.4033 15.0291 32.4036 17.0279 34.8711 17.0279Z" fill="white"/>
<path d="M51.8301 17.0279C54.2975 17.0279 56.2978 15.0291 56.2978 12.5635C56.2978 10.0979 54.2975 8.09908 51.8301 8.09908C49.3626 8.09908 47.3623 10.0979 47.3623 12.5635C47.3623 15.0291 49.3626 17.0279 51.8301 17.0279Z" fill="white"/>
<path d="M226.281 106.377C225.079 106.381 224.106 108.027 224.108 110.054C224.11 112.075 225.082 113.712 226.281 113.716H450.294C451.497 113.712 452.47 112.066 452.467 110.039C452.465 108.018 451.494 106.381 450.294 106.377H226.281Z" fill="#E6E6E6"/>
<path d="M226.281 128.396C225.079 128.4 224.106 130.046 224.108 132.073C224.11 134.094 225.082 135.731 226.281 135.735H391.815C393.017 135.731 393.99 134.085 393.988 132.058C393.985 130.037 393.014 128.4 391.815 128.396H226.281Z" fill="#E6E6E6"/>
<path d="M226.281 149.917C225.079 149.921 224.106 151.567 224.108 153.593C224.11 155.614 225.082 157.252 226.281 157.256H450.294C451.497 157.252 452.47 155.606 452.467 153.579C452.465 151.558 451.494 149.921 450.294 149.917H226.281Z" fill="#E6E6E6"/>
<path d="M226.281 171.936C225.079 171.94 224.106 173.586 224.108 175.612C224.11 177.633 225.082 179.271 226.281 179.275H391.815C393.017 179.27 393.99 177.624 393.988 175.598C393.985 173.577 393.014 171.94 391.815 171.936H226.281Z" fill="#E6E6E6"/>
<path d="M52.4448 187.573C51.2423 187.577 50.2693 189.223 50.2717 191.25C50.2741 193.271 51.2456 194.908 52.4448 194.912H163.02C164.223 194.908 165.196 193.262 165.193 191.235C165.191 189.215 164.219 187.577 163.02 187.573H52.4448Z" fill="#E6E6E6"/>
<path d="M52.4448 209.592C51.2423 209.596 50.2693 211.242 50.2717 213.269C50.2741 215.29 51.2456 216.927 52.4448 216.931H104.54C105.743 216.927 106.716 215.281 106.713 213.254C106.711 211.233 105.74 209.596 104.54 209.592H52.4448Z" fill="#E6E6E6"/>
<path d="M150.06 94.5459C147.917 88.3942 144.457 82.7836 139.921 78.1054C135.385 73.4272 129.882 69.794 123.797 67.4591C117.711 65.1243 111.189 64.144 104.686 64.5866C98.1823 65.0293 91.8536 66.8842 86.1411 70.022C80.4287 73.1598 75.4699 77.505 71.6107 82.7546C67.7515 88.0041 65.0847 94.0317 63.7963 100.417C62.5079 106.802 62.6289 113.392 64.1508 119.725C65.6727 126.059 68.559 131.985 72.6083 137.089C73.0106 137.596 73.4289 138.102 73.8552 138.593C73.8873 138.625 73.9113 138.657 73.9435 138.689C74.9925 139.897 76.1072 141.045 77.2826 142.13C77.5883 142.411 77.91 142.701 78.2317 142.974C78.8434 143.521 79.4707 144.043 80.1224 144.542C81.3949 145.544 82.7217 146.475 84.0968 147.331L84.145 147.355C85.0379 147.91 85.947 148.425 86.8725 148.915L87.2504 149.108C88.1193 149.558 89.0044 149.984 89.9134 150.378C90.0985 150.459 90.2996 150.539 90.4846 150.619C90.5007 150.627 90.509 150.627 90.5251 150.635C92.3619 151.399 94.2489 152.035 96.1728 152.541C99.9442 153.545 103.831 154.053 107.734 154.052C109.158 154.052 110.565 153.988 111.957 153.851C115.138 153.558 118.277 152.924 121.322 151.962C121.33 151.962 121.338 151.954 121.346 151.954C123.27 151.342 125.149 150.598 126.97 149.727C126.978 149.719 126.994 149.719 127.002 149.711C127.412 149.518 127.807 149.309 128.209 149.108L128.402 149.012C128.724 148.843 129.046 148.674 129.367 148.497C130.172 148.055 130.96 147.589 131.741 147.09C131.958 146.962 132.167 146.825 132.384 146.68C133.092 146.214 133.792 145.715 134.468 145.209C134.589 145.121 134.717 145.032 134.838 144.936C142.375 139.219 147.908 131.264 150.642 122.212C153.376 113.16 153.173 103.475 150.06 94.5459Z" fill="white"/>
<path d="M122.524 127.727C126.234 127.727 129.241 124.722 129.241 121.015C129.241 117.308 126.234 114.303 122.524 114.303C118.814 114.303 115.807 117.308 115.807 121.015C115.807 124.722 118.814 127.727 122.524 127.727Z" fill="#2F2E41"/>
<path d="M124.395 114.488C125.558 114.488 126.7 114.79 127.712 115.363C128.723 115.937 129.567 116.763 130.163 117.76C130.759 118.758 131.086 119.893 131.111 121.054C131.137 122.215 130.86 123.364 130.309 124.386C130.891 123.658 131.315 122.817 131.554 121.916C131.793 121.015 131.841 120.074 131.696 119.154C131.551 118.233 131.216 117.353 130.711 116.569C130.207 115.785 129.545 115.114 128.767 114.6C127.989 114.086 127.112 113.74 126.193 113.583C125.274 113.426 124.332 113.462 123.427 113.689C122.522 113.916 121.675 114.329 120.939 114.901C120.203 115.473 119.594 116.192 119.151 117.013C119.779 116.225 120.577 115.589 121.485 115.152C122.393 114.715 123.388 114.488 124.396 114.488H124.395Z" fill="#2F2E41"/>
<path d="M109.972 121.001C120.869 121.001 129.703 112.173 129.703 101.284C129.703 90.3945 120.869 81.5669 109.972 81.5669C99.0742 81.5669 90.24 90.3945 90.24 101.284C90.24 112.173 99.0742 121.001 109.972 121.001Z" fill="#2F2E41"/>
<path d="M94.4855 89.0506C97.8855 85.2298 102.638 82.8783 107.74 82.4926C112.842 82.1068 117.895 83.7168 121.831 86.9829C121.67 86.8294 121.509 86.675 121.343 86.5263C117.445 83.0371 112.32 81.238 107.094 81.5248C101.869 81.8117 96.9719 84.1609 93.48 88.0559C89.9882 91.9508 88.1877 97.0723 88.4748 102.294C88.7619 107.515 91.1129 112.409 95.0107 115.898C95.0482 115.931 95.0858 115.965 95.1235 115.998C95.2908 116.147 95.463 116.287 95.6343 116.43C91.9273 112.906 89.7354 108.08 89.5212 102.972C89.307 97.8638 91.0872 92.8722 94.4863 89.0506H94.4855Z" fill="#2F2E41"/>
<path d="M109.804 120.834C116.823 120.834 122.513 115.148 122.513 108.135C122.513 101.122 116.823 95.4361 109.804 95.4361C102.786 95.4361 97.0962 101.122 97.0962 108.135C97.0962 115.148 102.786 120.834 109.804 120.834Z" fill="#A0616A"/>
<path d="M132.545 141.222V145.482C131.765 145.981 130.976 146.447 130.172 146.889C129.85 147.066 129.528 147.235 129.207 147.404L129.013 147.5C128.611 147.701 128.217 147.91 127.807 148.103C127.799 148.111 127.782 148.111 127.774 148.119C125.953 148.99 124.074 149.734 122.151 150.346C122.143 150.346 122.135 150.354 122.127 150.354C119.082 151.317 115.942 151.95 112.762 152.243C111.37 152.38 109.962 152.444 108.538 152.444C104.635 152.445 100.749 151.937 96.9773 150.933C95.0534 150.428 93.1664 149.791 91.3296 149.028C91.3135 149.02 91.3052 149.02 91.2891 149.012C91.1041 148.931 90.903 148.851 90.7179 148.77C89.8089 148.376 88.9238 147.95 88.0549 147.5L87.677 147.307C86.7515 146.817 85.8424 146.302 84.9495 145.748L84.9013 145.724C83.5262 144.867 82.1994 143.936 80.9269 142.934C80.2752 142.435 79.6479 141.913 79.0362 141.366C78.7145 141.093 78.3928 140.804 78.0871 140.522C76.9117 139.437 75.797 138.289 74.748 137.081C74.8872 136.244 75.0917 135.419 75.3597 134.613L75.3675 134.605C75.4157 134.468 75.4721 134.334 75.5365 134.203C75.5809 134.088 75.6319 133.975 75.6893 133.866C77.1294 131.173 79.7363 130.505 82.9705 130.361C84.7967 130.28 86.8159 130.369 88.9482 130.345C90.0745 130.336 91.2408 130.296 92.4075 130.192C99.7688 129.525 98.4336 125.183 98.7632 122.844C99.0932 120.577 101.137 122.538 101.273 122.667L101.281 122.675C105.447 124.623 110.056 125.431 114.636 125.014C115.425 124.918 116.213 124.862 117.002 124.838C119.077 124.814 118.627 125.408 117.911 125.899C117.564 126.127 117.201 126.331 116.825 126.51C116.825 126.51 116.495 128.52 116.157 131.526C115.835 134.404 121.354 135.755 121.813 135.859C121.822 135.866 121.834 135.869 121.845 135.867C123.86 135.345 125.982 135.401 127.968 136.028H127.975C129.11 136.445 130.122 137.138 130.92 138.045C131.718 138.952 132.277 140.044 132.545 141.222Z" fill="#CBCBCB"/>
<path d="M91.4097 146.391C91.4097 146.986 91.394 147.556 91.3696 148.095C91.3618 148.417 91.3457 148.73 91.3296 149.028C91.3135 149.02 91.3052 149.02 91.2891 149.012C91.1041 148.931 90.9029 148.851 90.7179 148.77C89.8089 148.376 88.9238 147.95 88.0549 147.5L87.677 147.307C86.7515 146.817 85.8424 146.302 84.9495 145.748C84.9735 145.466 85.014 145.185 85.054 144.904C85.1424 144.285 85.2151 143.657 85.2634 143.038C85.5797 138.69 84.791 134.331 82.9704 130.369V130.361C82.8094 130.039 82.7131 129.862 82.7131 129.862C82.7131 129.862 85.054 127.852 88.3927 129.862C88.606 129.987 88.7943 130.151 88.9482 130.345C90.9595 132.716 91.5063 140.691 91.4097 146.391Z" fill="#2F2E41"/>
<path d="M127.943 145.297C127.911 146.198 127.863 147.138 127.807 148.095V148.103C127.799 148.111 127.782 148.111 127.774 148.119C125.953 148.99 124.074 149.734 122.151 150.346C122.143 150.346 122.135 150.354 122.127 150.354L122.038 148.095L122.03 147.798L121.604 136.8C121.592 136.551 121.632 136.302 121.719 136.069C121.806 135.836 121.94 135.622 122.112 135.442C122.285 135.262 122.492 135.118 122.721 135.02C122.95 134.922 123.197 134.871 123.446 134.871H127.525C127.726 134.871 127.871 135.281 127.968 136.02V136.028C128.165 139.115 128.157 142.212 127.943 145.297Z" fill="#2F2E41"/>
<path d="M98.9353 92.2614V104.963H101.878L105.623 100.953L105.122 104.963H118.131L117.327 100.953L118.936 104.963H121.01V92.2614H98.9353Z" fill="#2F2E41"/>
<path d="M96.9288 107.3C97.4829 107.3 97.932 106.477 97.932 105.462C97.932 104.447 97.4829 103.624 96.9288 103.624C96.3747 103.624 95.9255 104.447 95.9255 105.462C95.9255 106.477 96.3747 107.3 96.9288 107.3Z" fill="#A0616A"/>
<path d="M122.681 107.3C123.235 107.3 123.684 106.477 123.684 105.462C123.684 104.447 123.235 103.624 122.681 103.624C122.127 103.624 121.677 104.447 121.677 105.462C121.677 106.477 122.127 107.3 122.681 107.3Z" fill="#A0616A"/>
<path d="M150.06 94.5459C147.917 88.3942 144.457 82.7836 139.921 78.1054C135.385 73.4272 129.882 69.794 123.797 67.4591C117.711 65.1243 111.189 64.144 104.686 64.5866C98.1823 65.0293 91.8536 66.8842 86.1411 70.022C80.4287 73.1598 75.4699 77.505 71.6107 82.7546C67.7515 88.0041 65.0847 94.0317 63.7963 100.417C62.5079 106.802 62.6289 113.392 64.1508 119.725C65.6727 126.059 68.559 131.985 72.6083 137.089C73.0106 137.596 73.4289 138.102 73.8552 138.593C73.8873 138.625 73.9113 138.657 73.9435 138.689C74.9925 139.897 76.1072 141.045 77.2826 142.13C77.5883 142.411 77.91 142.701 78.2317 142.974C78.8434 143.521 79.4707 144.043 80.1224 144.542C81.3949 145.544 82.7217 146.475 84.0968 147.331L84.145 147.355C85.0379 147.91 85.947 148.425 86.8725 148.915L87.2504 149.108C88.1193 149.558 89.0044 149.984 89.9134 150.378C90.0985 150.459 90.2996 150.539 90.4846 150.619C90.5007 150.627 90.509 150.627 90.5251 150.635C92.3619 151.399 94.2489 152.035 96.1728 152.541C99.9442 153.545 103.831 154.053 107.734 154.052C109.158 154.052 110.565 153.988 111.957 153.851C115.138 153.558 118.277 152.924 121.322 151.962C121.33 151.962 121.338 151.954 121.346 151.954C123.27 151.342 125.149 150.598 126.97 149.727C126.978 149.719 126.994 149.719 127.002 149.711C127.412 149.518 127.807 149.309 128.209 149.108L128.402 149.012C128.724 148.843 129.046 148.674 129.367 148.497C130.172 148.055 130.96 147.589 131.741 147.09C131.958 146.962 132.167 146.825 132.384 146.68C133.092 146.214 133.792 145.715 134.468 145.209C134.589 145.121 134.717 145.032 134.838 144.936C142.375 139.219 147.908 131.264 150.642 122.212C153.376 113.16 153.173 103.475 150.06 94.5459ZM133.358 142.982C133.092 143.191 132.819 143.392 132.545 143.577C132.28 143.778 132.014 143.971 131.741 144.148C131.507 144.317 131.274 144.477 131.032 144.63C130.831 144.767 130.63 144.896 130.429 145.024C129.762 145.442 129.086 145.844 128.402 146.23C128.329 146.27 128.257 146.31 128.184 146.351C127.879 146.519 127.573 146.68 127.268 146.841C127.227 146.865 127.179 146.881 127.139 146.905L127.09 146.929C126.704 147.13 126.31 147.323 125.916 147.508C124.395 148.24 122.828 148.874 121.225 149.405C121.016 149.478 120.807 149.55 120.598 149.615C117.716 150.53 114.743 151.134 111.732 151.415C110.413 151.536 109.077 151.6 107.733 151.6C104.042 151.608 100.365 151.127 96.8001 150.169C94.9705 149.692 93.1772 149.085 91.434 148.352C91.249 148.28 91.0639 148.2 90.8868 148.127C90.7906 148.087 90.7018 148.047 90.6052 147.999C89.8489 147.669 89.101 147.307 88.3687 146.929L88.0148 146.745C87.1219 146.278 86.2447 145.78 85.3919 145.249C85.0784 145.056 84.7645 144.855 84.4589 144.646C83.4933 144.011 82.5521 143.328 81.6348 142.612C81.0153 142.146 80.4202 141.648 79.8407 141.133C79.5351 140.876 79.2373 140.594 78.9478 140.329C77.8071 139.277 76.7273 138.16 75.7136 136.985C75.3758 136.599 75.0458 136.213 74.7319 135.811C74.6606 135.732 74.5934 135.648 74.5308 135.562C69.3036 128.971 66.1594 120.973 65.4994 112.589C64.8393 104.205 66.6933 95.8145 70.8248 88.4876C74.9563 81.1607 81.1781 75.2294 88.6967 71.4503C96.2154 67.6711 104.69 66.2153 113.04 67.2686C121.39 68.3218 129.237 71.8363 135.58 77.3639C141.923 82.8915 146.474 90.1817 148.654 98.3047C150.834 106.428 150.543 115.015 147.819 122.973C145.094 130.93 140.06 137.896 133.358 142.982H133.358Z" fill="#CBCBCB"/>
<path d="M425.789 161.706C426.187 161.995 426.561 162.315 426.909 162.663L470.155 154.139L473.629 144.018L489.602 147.261L485.193 165.777C484.837 167.272 484.005 168.612 482.822 169.595C481.639 170.578 480.168 171.151 478.631 171.228L428.546 173.736C427.64 175.399 426.249 176.747 424.558 177.601C422.867 178.455 420.956 178.774 419.079 178.516C417.202 178.259 415.448 177.436 414.051 176.158C412.653 174.879 411.678 173.206 411.255 171.361C410.832 169.515 410.982 167.585 411.684 165.826C412.386 164.068 413.607 162.565 415.185 161.516C416.762 160.468 418.622 159.925 420.516 159.959C422.411 159.992 424.25 160.602 425.789 161.706Z" fill="#FFB7B7"/>
<path d="M469.102 152.137C468.818 151.638 468.645 151.083 468.595 150.511C468.545 149.939 468.619 149.363 468.813 148.822L475.563 129.931C476.134 127.048 477.826 124.51 480.268 122.872C482.709 121.234 485.701 120.63 488.587 121.193C491.473 121.756 494.018 123.439 495.664 125.874C497.31 128.309 497.923 131.296 497.368 134.182L496.39 154.283C496.362 154.856 496.211 155.417 495.947 155.927C495.682 156.437 495.311 156.884 494.858 157.238C494.405 157.591 493.881 157.843 493.322 157.976C492.763 158.109 492.182 158.121 491.618 158.009L471.803 154.085C471.239 153.974 470.705 153.742 470.239 153.406C469.773 153.07 469.385 152.637 469.102 152.137Z" fill="#FFC93C"/>
<path d="M458.256 397.15L445.541 397.149L439.493 348.145L458.257 348.146L458.256 397.15Z" fill="#FFB7B7"/>
<path d="M461.498 409.465L420.502 409.464V408.945C420.502 404.717 422.184 400.661 425.176 397.671C428.169 394.681 432.227 393.001 436.459 393.001H436.46L461.499 393.002L461.498 409.465Z" fill="#2F2E41"/>
<path d="M578.654 383.835L566.879 388.625L542.784 345.518L560.164 338.449L578.654 383.835Z" fill="#FFB7B7"/>
<path d="M586.304 394.019L548.335 409.465L548.139 408.985C546.544 405.069 546.57 400.679 548.213 396.782C549.857 392.885 552.981 389.8 556.901 388.205L556.902 388.205L580.092 378.771L586.304 394.019Z" fill="#2F2E41"/>
<path d="M469.823 193.666L463.973 162.737C462.701 158.183 462.476 153.401 463.313 148.748C464.15 144.094 466.028 139.69 468.807 135.864L490.193 107.292L510.62 107.892C520.278 131.281 522.057 157.176 515.686 181.665L511.932 196.098C528.77 211.275 540.06 253.827 550.337 301.377L578.508 363.634L530.041 378.338L498.639 287.035L470.589 379.017L429.514 377.442L460.755 235.163L469.823 193.666Z" fill="#2F2E41"/>
<path d="M502.369 101.517C513.374 101.517 522.296 92.6019 522.296 81.6049C522.296 70.6079 513.374 61.6931 502.369 61.6931C491.364 61.6931 482.442 70.6079 482.442 81.6049C482.442 92.6019 491.364 101.517 502.369 101.517Z" fill="#FFB7B7"/>
<path d="M581.024 126.831C577.322 119.605 576.058 111.399 573.209 103.797C570.36 96.195 565.183 88.6524 557.334 86.5572C552.882 85.3687 548.151 86.0942 543.578 85.5284C539.557 85.0309 535.228 82.9795 533.688 79.4111C533.998 75.8736 533.556 72.3106 532.391 68.9558C529.523 60.8114 522.682 54.3821 514.707 51.0584C508.229 48.3585 500.769 47.5959 494.154 49.9405C487.539 52.2851 481.986 58.0153 480.797 64.9276C479.607 71.84 483.421 79.5584 489.995 82.0137C494.716 83.7766 500.795 83.1897 503.877 87.1736C507 91.2096 504.762 97.0915 501.926 101.333L502.119 101.53C511.383 101.639 521.396 99.8501 527.776 93.1388C528.468 92.406 529.105 91.6228 529.681 90.7956C529.877 91.1089 530.082 91.4144 530.302 91.7063C533.515 95.9693 538.544 98.3876 543.336 100.744C548.128 103.1 553.098 105.744 555.976 110.239C561.177 118.363 557.763 129.305 560.737 138.479C562.061 142.563 564.614 146.14 568.047 148.721C571.48 151.302 575.627 152.762 579.921 152.901C584.215 153.04 588.448 151.852 592.041 149.499C595.635 147.145 598.414 143.741 600 139.751C591.904 140.427 584.726 134.057 581.024 126.831Z" fill="#2F2E41"/>
<path d="M387.913 177.784L388.756 157.323L417.675 99.8671C418.491 98.2337 419.82 96.9128 421.46 96.1075C422.464 95.6071 423.557 95.3117 424.677 95.2387C425.796 95.1656 426.919 95.3164 427.98 95.6821C429.208 96.1053 430.322 96.8064 431.235 97.7306C432.147 98.6548 432.834 99.7772 433.241 101.01C433.416 101.543 433.538 102.091 433.607 102.646C433.813 104.296 433.521 105.97 432.769 107.453L403.81 164.986L387.913 177.784Z" fill="#FFC93C"/>
<path d="M425.061 95.6243L393.669 157.992L391.276 156.79L421.637 96.4682C422.702 95.9359 423.871 95.6476 425.061 95.6243Z" fill="#3F3D56"/>
<path d="M433.208 102.697L403.013 162.688L400.619 161.486L431.946 99.2465C432.332 99.8338 432.639 100.469 432.859 101.136C433.026 101.644 433.142 102.167 433.208 102.697Z" fill="#3F3D56"/>
<path d="M430.202 97.3441L398.463 160.402L396.069 159.199L427.848 96.0622C428.187 96.178 428.517 96.3169 428.837 96.478C429.319 96.7211 429.777 97.0112 430.202 97.3441Z" fill="#3F3D56"/>
<path d="M391.543 174.346L388.35 176.916L388.617 170.14C389.714 170.52 390.901 172.169 391.543 174.346Z" fill="#3F3D56"/>
<path d="M424.473 109.934C424.582 110.413 424.653 110.9 424.686 111.39L462.867 133.401L472.148 128.062L482.042 141.005L466.531 152.051C465.278 152.943 463.769 153.406 462.231 153.368C460.693 153.331 459.208 152.796 458 151.843L418.629 120.806C416.852 121.463 414.917 121.564 413.081 121.096C411.245 120.627 409.596 119.611 408.352 118.183C407.108 116.755 406.329 114.983 406.118 113.101C405.907 111.22 406.274 109.319 407.17 107.651C408.067 105.983 409.45 104.627 411.137 103.764C412.823 102.901 414.733 102.572 416.611 102.82C418.489 103.068 420.248 103.881 421.652 105.152C423.057 106.423 424.041 108.09 424.473 109.934Z" fill="#FFB7B7"/>
<path d="M463.392 131.201C463.507 130.638 463.742 130.106 464.081 129.643C464.42 129.179 464.856 128.794 465.357 128.514L482.879 118.724C485.207 116.928 488.152 116.129 491.069 116.5C493.986 116.871 496.637 118.383 498.44 120.704C500.244 123.026 501.052 125.967 500.689 128.883C500.325 131.799 498.819 134.452 496.501 136.26L482.532 150.756C482.133 151.169 481.649 151.492 481.115 151.702C480.58 151.913 480.006 152.005 479.432 151.974C478.858 151.942 478.298 151.788 477.789 151.52C477.28 151.253 476.835 150.879 476.484 150.425L464.144 134.443C463.792 133.989 463.543 133.463 463.414 132.904C463.284 132.344 463.277 131.763 463.392 131.201Z" fill="#FFC93C"/>
<path d="M597.461 410H290.938C290.725 410 290.52 409.915 290.369 409.765C290.218 409.614 290.134 409.409 290.134 409.196C290.134 408.983 290.218 408.778 290.369 408.628C290.52 408.477 290.725 408.392 290.938 408.392H597.461C597.675 408.392 597.879 408.477 598.03 408.628C598.181 408.778 598.266 408.983 598.266 409.196C598.266 409.409 598.181 409.614 598.03 409.765C597.879 409.915 597.675 410 597.461 410Z" fill="#CBCBCB"/>
</svg>
