<svg width="194" height="41" viewBox="0 0 194 41" fill="none" xmlns="http://www.w3.org/2000/svg">
<path d="M6 38.21H0V40.21H6V38.21Z" fill="#CBCBCB"/>
<path d="M174.934 40.21H162.867V38.21H174.934V40.21ZM150.801 40.21H138.734V38.21H150.801L150.801 40.21ZM126.667 40.21H114.601V38.21H126.667V40.21ZM102.534 40.21H90.4673V38.21H102.534V40.21ZM78.4006 40.21H66.334V38.21H78.4006V40.21ZM54.2673 40.21H42.2007V38.21H54.2673V40.21ZM30.134 40.21H18.0674V38.21H30.134V40.21Z" fill="#CBCBCB"/>
<path d="M194.001 40.21H187.001V38.21H192.001V33.21H194.001V40.21Z" fill="#CBCBCB"/>
<path d="M194 6.07031H192V12.1401H194V6.07031Z" fill="#CBCBCB"/>
<path d="M194 0H192V6H194V0Z" fill="#CBCBCB"/>
</svg>
